<svg xmlns="http://www.w3.org/2000/svg" width="64" height="64" fill="none"><g clip-path="url(#a)"><path fill="#1F406A" d="M60.514 19.953a30.9 30.9 0 0 0-6.631-9.836 30.9 30.9 0 0 0-9.836-6.631A30.7 30.7 0 0 0 32 1.054c-4.18 0-8.232.817-12.047 2.432a30.9 30.9 0 0 0-9.836 6.631 30.8 30.8 0 0 0-6.632 9.836A30.7 30.7 0 0 0 1.053 32c0 4.18.817 8.232 2.432 12.047a30.8 30.8 0 0 0 6.632 9.836 30.9 30.9 0 0 0 9.836 6.632A30.7 30.7 0 0 0 32 62.947c4.18 0 8.231-.818 12.047-2.432a30.9 30.9 0 0 0 9.836-6.632 30.9 30.9 0 0 0 6.631-9.836A30.7 30.7 0 0 0 62.946 32c0-4.18-.817-8.231-2.432-12.047M32.123 57.05c-13.77 0-24.975-11.21-24.975-24.99s11.2-24.99 24.975-24.99 24.975 11.21 24.975 24.99-11.205 24.99-24.975 24.99"/><path fill="#3D6638" d="M61.031 19.737a31.3 31.3 0 0 0-6.754-10.014 31.4 31.4 0 0 0-10.014-6.75A31.3 31.3 0 0 0 32 .498c-4.254 0-8.38.832-12.263 2.477a31.4 31.4 0 0 0-10.014 6.75 31.5 31.5 0 0 0-6.754 10.013A31.3 31.3 0 0 0 .492 32c0 4.254.832 8.38 2.477 12.264a31.4 31.4 0 0 0 6.754 10.013 31.4 31.4 0 0 0 10.013 6.75A31.3 31.3 0 0 0 32 63.503c4.253 0 8.379-.832 12.263-2.477a31.4 31.4 0 0 0 10.014-6.749 31.5 31.5 0 0 0 6.754-10.013A31.3 31.3 0 0 0 63.508 32c0-4.253-.832-8.379-2.477-12.263M44.047 60.515A30.7 30.7 0 0 1 32 62.947c-4.18 0-8.231-.818-12.047-2.433a30.9 30.9 0 0 1-9.836-6.63 30.8 30.8 0 0 1-6.632-9.837A30.7 30.7 0 0 1 1.053 32c0-4.18.818-8.231 2.432-12.047a30.8 30.8 0 0 1 6.632-9.836 30.9 30.9 0 0 1 9.836-6.631A30.7 30.7 0 0 1 32 1.054c4.18 0 8.231.817 12.047 2.432a30.9 30.9 0 0 1 9.836 6.631 30.9 30.9 0 0 1 6.631 9.836A30.7 30.7 0 0 1 62.946 32c0 4.18-.817 8.231-2.432 12.047a30.9 30.9 0 0 1-6.631 9.836 30.9 30.9 0 0 1-9.836 6.631"/><path fill="#fff" d="m6.794 24.01-.419 1.452-.541-.157.256-.896-.532-.153-.256.896-.532-.153.256-.896-1.314-.379.157-.551 2.92.837zM6.208 26.24l-.118.561-2.974-.62.118-.561zM5.893 27.746l-.064.552-2.132 1.068 1.984.222-.064.576-3.018-.34.064-.551 2.127-1.069-1.98-.221.065-.576zM5.588 32.05l.01.585-3.018 1.216-.01-.6.62-.247-.02-1.24-.63-.237-.01-.6zm-.798.31-1.049-.39.015.813zM5.686 34.516l.079.551-1.792 1.57 1.979-.28.083.57-3.008.43-.079-.552 1.788-1.566-1.975.28-.083-.57 3.008-.428zM6.464 40.694l-.483-.286c.207-.344.261-.679.168-1.014a1 1 0 0 0-.483-.625 1 1 0 0 0-.787-.089 1.1 1.1 0 0 0-.483.271.96.96 0 0 0-.256.458 1.05 1.05 0 0 0 .015.551c.044.163.118.3.217.419.098.118.25.231.452.35l-.285.487a2.2 2.2 0 0 1-.61-.488 1.7 1.7 0 0 1-.306-.625q-.191-.68.118-1.236.312-.555.985-.748c.29-.084.571-.088.832-.02.266.07.497.207.704.414q.31.31.428.739.104.36.045.738c-.04.251-.128.487-.271.7M7.271 41.255l.207.537-2.83 1.103-.208-.537zM8.246 43.515l.26.527-2.19 2.407-.27-.537.452-.492-.556-1.108-.67.06-.27-.537 3.239-.315zm-.586.625-1.113.103.365.73zM9.437 45.7l.31.488-2.092 1.344.453.71-.463.295-.768-1.197 2.556-1.64zM13.026 51.146l-.556-.04c.03-.398-.069-.728-.3-.98a1 1 0 0 0-.714-.344 1 1 0 0 0-.743.271c-.153.138-.252.29-.31.463a.96.96 0 0 0-.025.526q.064.267.26.488c.114.123.237.216.38.276.137.059.325.098.56.108l-.038.566q-.47-.029-.763-.167a1.7 1.7 0 0 1-.552-.424c-.315-.35-.468-.738-.448-1.162q.028-.635.552-1.107c.226-.202.467-.335.738-.39.27-.053.537-.039.817.055.276.094.517.251.714.468a1.75 1.75 0 0 1 .438 1.393M14.035 51.333l.463.404q.378.33.483.536.102.208.064.453a.9.9 0 0 1-.227.458.84.84 0 0 1-.438.286.87.87 0 0 1-.527-.054l-.344 1.491-.478-.413.33-1.418-.04-.035-.841.97-.439-.379 1.994-2.294zm-.344 1.275.138.118q.207.183.334.197.126.013.237-.113a.27.27 0 0 0 .073-.163.3.3 0 0 0-.034-.172 1 1 0 0 0-.217-.231l-.118-.104-.408.473zM16.113 53.056l.463.34-1.802 2.447-.463-.34zM17.575 54.12l.488.285-.463 2.186 1.684-1.472.482.285-1.098 2.88-.482-.28.689-1.822-1.526 1.33-.438-.257.418-1.979-1.255 1.487-.488-.285 1.99-2.354zM20.889 55.936l1.52.655-.22.522-.995-.429-.217.507.995.429-.217.512-.994-.429-.315.734.994.428-.226.522-1.522-.655 1.202-2.791zM24.596 57.763l-.522.226q-.118-.37-.34-.438a.27.27 0 0 0-.197 0 .2.2 0 0 0-.113.108.27.27 0 0 0 0 .153c.025.074.123.236.286.502q.23.363.275.453.112.22.133.399a.8.8 0 0 1-.04.359.8.8 0 0 1-.432.507.95.95 0 0 1-.72.025.95.95 0 0 1-.486-.325 1.26 1.26 0 0 1-.242-.6l.552-.134c.059.3.177.483.359.537q.14.046.266-.005a.26.26 0 0 0 .157-.163.35.35 0 0 0-.01-.221 2.2 2.2 0 0 0-.226-.404c-.231-.36-.374-.62-.418-.792a.74.74 0 0 1 0-.463.72.72 0 0 1 .393-.443.83.83 0 0 1 .636-.035c.142.05.27.123.379.232q.163.162.305.502M27.097 57.925l1.639.261-.089.561-1.073-.167-.084.541 1.074.168-.089.551-1.068-.167-.123.787 1.073.168-.089.561-1.64-.26.474-3.004zM29.558 58.284l.556.025 1.207 2.058.093-1.999.576.025-.138 3.037-.556-.024-1.206-2.048L30 61.347l-.576-.025.138-3.038zM32.97 58.358l1.506-.093.035.56-.93.06.034.551.93-.059.035.557-.93.059.083 1.363-.571.035-.182-3.033zM36.662 57.88q.633-.11 1.172.267c.359.25.576.6.654 1.038q.119.656-.25 1.187a1.53 1.53 0 0 1-1.015.65 1.52 1.52 0 0 1-1.201-.266 1.57 1.57 0 0 1-.645-1.03c-.05-.285-.03-.56.069-.826.093-.266.251-.488.468-.675.216-.182.467-.3.743-.35m.094.557a.95.95 0 0 0-.645.414c-.153.226-.207.487-.153.782q.09.496.497.72a.98.98 0 0 0 .675.112.93.93 0 0 0 .635-.418c.157-.227.207-.488.157-.773a1 1 0 0 0-.413-.67.96.96 0 0 0-.753-.172M39.045 57.428l.586-.182q.48-.15.709-.129.227.021.418.183a.95.95 0 0 1 .27.433q.091.286.01.522a.87.87 0 0 1-.324.418l1.088 1.078-.6.187-1.035-1.029-.049.015.384 1.231-.551.172-.901-2.9zm.906.965.172-.055q.265-.08.34-.182c.054-.069.064-.152.03-.26a.33.33 0 0 0-.1-.153.3.3 0 0 0-.162-.06q-.096-.001-.31.065l-.152.049.187.596zM44.367 55.946l-.212.517c-.37-.153-.714-.158-1.024-.02a1 1 0 0 0-.547.571 1 1 0 0 0 .03.793c.084.187.197.33.34.438.142.108.31.167.492.187a1.05 1.05 0 0 0 .541-.099q.23-.104.38-.275c.103-.113.192-.28.28-.502l.522.211q-.17.437-.394.675-.224.237-.57.394c-.434.192-.848.216-1.241.064-.4-.153-.69-.438-.882-.867a1.6 1.6 0 0 1-.142-.822c.029-.27.132-.527.305-.758a1.65 1.65 0 0 1 .664-.537 1.74 1.74 0 0 1 1.458.015M44.835 55.05l1.422-.847.29.487-.93.557.28.472.931-.556.286.478-.93.556.408.684.93-.556.29.487-1.422.847zM47.173 53.608l.443-.345 1.856 1.24-.739-2.111.444-.345 2.264 2.087-.443.345-1.432-1.315.664 1.91-.403.316-1.68-1.123.912 1.723-.448.345-1.448-2.723zM50.092 51.2l1.177-1.172.399.404-.768.763.389.389.768-.763.393.394-.768.763.562.566.768-.763.398.404-1.176 1.171-2.142-2.151zM51.835 49.423l.345-.434 2.373.237-1.561-1.25.364-.453 2.368 1.905-.35.433-2.367-.236 1.555 1.245-.359.453zM53.745 46.961l.91-1.413.478.31-.3.468 2.073 1.34-.32.492-2.073-1.34-.29.453zM55.729 43.604l.221-.507 2.354-.394-1.832-.798.232-.532 2.786 1.212-.221.512-2.344.393 1.827.798-.232.532-2.786-1.216zM57.019 40.448l.487-1.585.542.167-.32 1.039.527.162.32-1.038.531.162-.32 1.039.764.236.32-1.039.541.168-.487 1.585zM57.64 38.321l.349-1.644.556.118-.113.541 2.412.517-.123.576-2.412-.517-.113.527zM58.112 36.244l.054-.567 1.97-.256-1.881-.723.044-.478 1.984-.364-1.89-.616.054-.566 2.958.965-.054.552-2.008.374 1.905.733-.054.547-3.087.398zM58.29 30.553a1.5 1.5 0 0 1 .408-1.133 1.56 1.56 0 0 1 1.112-.522c.443-.024.822.109 1.147.4.325.29.493.649.517 1.082.025.458-.113.842-.413 1.162s-.665.487-1.098.512a1.565 1.565 0 0 1-1.423-.719 1.6 1.6 0 0 1-.256-.783m.566-.024q.021.42.33.694a1 1 0 0 0 .758.246q.504-.028.778-.404a1 1 0 0 0 .197-.654.95.95 0 0 0-.335-.684 1.01 1.01 0 0 0-.748-.252q-.433.021-.719.33a.97.97 0 0 0-.26.724M58.141 28.135l-.108-.605q-.089-.496-.035-.72a.74.74 0 0 1 .232-.388.9.9 0 0 1 .463-.212.85.85 0 0 1 .516.054.86.86 0 0 1 .375.375l1.206-.946.108.626-1.147.896.01.054 1.265-.222.103.571-2.993.532zm1.068-.778-.03-.177c-.029-.182-.078-.3-.137-.36-.059-.058-.148-.078-.256-.058a.3.3 0 0 0-.162.078.27.27 0 0 0-.08.153q-.013.091.025.315l.03.158.615-.109zM57.62 25.482l-.163-.561 1.004-.29-1.235-.503-.192-.665 1.6.64 1.29-1.585.191.66-1.033 1.275 1.294-.38.163.562-2.915.847zM15.173 7.995l.537-.36 1.21 1.827q.157.238.261.305a.4.4 0 0 0 .242.064.5.5 0 0 0 .266-.093.55.55 0 0 0 .201-.227.4.4 0 0 0 .03-.26c-.02-.084-.089-.222-.217-.41l-1.166-1.757.541-.36 1.118 1.685c.187.285.305.492.344.625a1.06 1.06 0 0 1-.133.871 1.3 1.3 0 0 1-.359.345 1.17 1.17 0 0 1-.63.211 1 1 0 0 1-.561-.137q-.238-.149-.572-.65L15.168 7.99zM19.683 8.408a.34.34 0 0 1 .275-.03c.094.03.168.085.212.173a.34.34 0 0 1 .03.276.36.36 0 0 1-.173.217.34.34 0 0 1-.276.03.35.35 0 0 1-.216-.178.34.34 0 0 1-.03-.276.35.35 0 0 1 .178-.212M21.519 5.021l-.266.581c-.246-.147-.453-.187-.61-.113a.3.3 0 0 0-.163.148q-.046.097-.01.172c.025.05.064.094.118.123.074.04.281.109.61.207q.465.134.567.177.26.106.409.232a1 1 0 0 1 .236.33.9.9 0 0 1 .015.748c-.104.241-.296.428-.576.551a1.13 1.13 0 0 1-.65.094q-.319-.052-.645-.325l.364-.517q.406.312.694.182a.42.42 0 0 0 .217-.202.28.28 0 0 0 .015-.25.4.4 0 0 0-.172-.178c-.084-.05-.247-.104-.488-.172-.458-.128-.768-.242-.935-.35a.9.9 0 0 1-.345-.384.8.8 0 0 1 0-.66.92.92 0 0 1 .502-.497c.153-.069.32-.098.488-.089q.257.015.625.192M23.547 6.705a.34.34 0 0 1 .276.015.34.34 0 0 1 .182.207.34.34 0 0 1-.015.275.34.34 0 0 1-.207.183.34.34 0 0 1-.276-.015.34.34 0 0 1-.182-.207.357.357 0 0 1 .222-.458M25.374 3.308l1.831-.379.128.625-.606.124.557 2.697-.64.133-.557-2.698-.59.124-.128-.626zM28.17 2.782l.68-.074q.558-.06.807.014c.162.05.305.148.418.29.113.144.177.32.202.533a.93.93 0 0 1-.099.57q-.132.243-.443.39l.96 1.413-.699.073-.91-1.344h-.06l.153 1.433-.64.069-.36-3.367zm.783 1.25.201-.02q.303-.031.414-.128c.069-.064.098-.152.089-.28a.34.34 0 0 0-.08-.187.35.35 0 0 0-.167-.104 1.4 1.4 0 0 0-.354 0l-.177.02.074.69zM31.355 2.516h1.846v.63h-1.206v.615h1.206v.62h-1.206v.896h1.211v.63h-1.851l-.005-3.386zM35.387 2.678l.65.079.89 3.52-.664-.079-.182-.724-1.373-.162-.355.66-.665-.08 1.699-3.21zm.221.93-.59 1.103.9.109-.31-1.207zM39.98 4.017l-.566.296q-.162-.398-.413-.463a.32.32 0 0 0-.217.015q-.097.045-.113.128a.24.24 0 0 0 .02.172q.051.117.354.536c.187.261.305.419.34.483.098.157.157.305.177.433a.9.9 0 0 1-.015.404.89.89 0 0 1-.443.6c-.231.128-.492.158-.793.084a1.17 1.17 0 0 1-.57-.32q-.221-.236-.316-.65l.606-.192q.132.496.443.571c.108.025.207.02.295-.03a.28.28 0 0 0 .163-.191.35.35 0 0 0-.03-.241c-.034-.089-.133-.232-.28-.434q-.43-.568-.527-.846a.9.9 0 0 1-.04-.512.8.8 0 0 1 .404-.522.91.91 0 0 1 .704-.089q.244.062.443.227.193.168.38.536M41.226 3.904l.605.222-.758 2.057a1.3 1.3 0 0 0-.093.394c0 .084.034.163.088.232a.55.55 0 0 0 .232.162q.16.06.3.03a.4.4 0 0 0 .226-.128c.06-.064.123-.202.202-.419l.729-1.979.605.222-.699 1.895q-.175.482-.3.645a1 1 0 0 1-.34.28 1 1 0 0 1-.443.129c-.152.005-.32-.02-.492-.089a1.16 1.16 0 0 1-.542-.38.97.97 0 0 1-.221-.53c-.015-.188.05-.468.187-.848l.699-1.895zM44.588 5.238l.61.31q.502.253.67.453a.83.83 0 0 1 .192.468q.023.274-.118.556c-.103.197-.231.34-.394.423q-.245.128-.586.084l.035 1.709-.63-.32-.03-1.625-.054-.025-.65 1.28-.576-.29zm-.024 1.472.182.094q.273.14.413.118c.094-.015.168-.074.227-.187.034-.064.044-.133.034-.197a.37.37 0 0 0-.084-.178c-.044-.049-.147-.113-.3-.192l-.157-.078zM47.237 6.631l.576.384-.148 1.364 1.197-.67.57.38-1.885 1.053-.812 1.221-.542-.36.813-1.22zM52.332 10.954l.556 1.132 1.246.182-.901.881.212 1.241-1.113-.586-1.113.586.212-1.24-.9-.882 1.245-.182zM11.939 10.954l.556 1.132 1.245.182-.9.881.211 1.241-1.112-.586-1.113.586.212-1.24-.901-.882 1.245-.182z"/><path fill="#3D6638" d="M32 7.148C18.304 7.148 7.163 18.3 7.163 32S18.304 56.852 32 56.852 56.837 45.702 56.837 32C56.837 18.3 45.696 7.148 32 7.148m0 44.308c-10.663 0-19.308-8.645-19.308-19.308S21.337 12.839 32 12.839s19.308 8.645 19.308 19.309c0 10.663-8.645 19.308-19.308 19.308"/><path fill="#fff" d="M32 6.951C18.196 6.951 6.966 18.191 6.966 32c0 13.81 11.23 25.049 25.034 25.049S57.034 45.809 57.034 32c0-13.81-11.23-25.049-25.034-25.049m0 49.906c-13.696 0-24.837-11.151-24.837-24.852S18.304 7.148 32 7.148 56.837 18.3 56.837 32 45.697 56.852 32 56.852z"/><path fill="#fff" d="M11.53 29.174a.8.8 0 0 1-.197.434.8.8 0 0 1-.438.231q-.28.066-.753-.01c-.315-.05-.561-.123-.724-.216a.85.85 0 0 1-.345-.34.77.77 0 0 1-.054-.468.8.8 0 0 1 .192-.433.84.84 0 0 1 .424-.232c.182-.044.428-.039.743.005.438.07.748.183.926.35a.74.74 0 0 1 .231.68m-.433-.055a.3.3 0 0 0-.045-.216.47.47 0 0 0-.23-.178 2.3 2.3 0 0 0-.523-.128c-.305-.044-.517-.039-.645.015s-.197.138-.216.256a.3.3 0 0 0 .123.286c.123.098.335.172.645.221.315.05.536.044.664-.01.133-.054.202-.137.222-.246M11.279 30.873l-.035.689-2.417-.123.025-.458 1.984.098.024-.497zM11.24 32.985l.034.689-2.417.123-.025-.458 1.984-.103-.025-.497zM11.53 35.451a.84.84 0 0 1-.059.473.86.86 0 0 1-.35.354c-.167.094-.403.168-.718.217q-.479.075-.758.01a.9.9 0 0 1-.434-.222.72.72 0 0 1-.192-.428.8.8 0 0 1 .054-.473.8.8 0 0 1 .335-.344c.158-.099.399-.168.71-.217q.657-.104.984.06c.241.117.379.31.423.58m-.433.079a.29.29 0 0 0-.104-.192c-.059-.054-.152-.084-.275-.099s-.305 0-.537.035c-.3.044-.507.113-.61.202q-.157.134-.128.305c.015.108.083.192.202.236q.213.09.679.015.473-.074.635-.207c.108-.088.153-.192.138-.3M11.8 37.155l.173.67-2.343.605-.113-.444 1.925-.497-.124-.482.488.148zM12.391 39.178l.242.645-2.27.842-.157-.428 1.865-.69-.172-.467.497.098zM13.184 41.132l.3.62-2.176 1.064-.202-.409 1.787-.87-.216-.449.507.05zM14.42 43.289c.094.152.138.3.128.458-.005.152-.069.305-.182.462q-.17.23-.576.483-.406.252-.694.305a.84.84 0 0 1-.488-.034.76.76 0 0 1-.344-.32.76.76 0 0 1-.133-.458.8.8 0 0 1 .172-.448q.163-.228.571-.478.57-.348.93-.335a.74.74 0 0 1 .616.37m-.364.24a.32.32 0 0 0-.173-.137.47.47 0 0 0-.29.02c-.118.034-.28.118-.478.241-.26.162-.418.3-.482.428q-.09.186 0 .335c.059.094.153.143.28.138q.237 0 .636-.251.405-.253.502-.438c.064-.123.069-.237.01-.33M17.177 46.838a.78.78 0 0 1 .221.419.8.8 0 0 1-.078.487q-.122.264-.463.596c-.232.221-.438.374-.616.448a.83.83 0 0 1-.482.069.8.8 0 0 1-.404-.237.8.8 0 0 1-.226-.418.85.85 0 0 1 .074-.478c.074-.172.226-.364.458-.585.32-.31.595-.483.836-.522a.74.74 0 0 1 .68.226m-.305.31a.33.33 0 0 0-.197-.098c-.08-.01-.173.02-.28.079a2.4 2.4 0 0 0-.42.34q-.328.315-.378.521-.051.2.069.325c.078.079.177.103.305.074q.228-.053.566-.38.34-.33.399-.536c.039-.138.014-.246-.064-.325M18.378 48.074l.527.443-1.56 1.851-.35-.295 1.28-1.522-.38-.32zM20.382 49.541a.8.8 0 0 1 .305.364.84.84 0 0 1 .02.498c-.045.187-.153.408-.335.674q-.271.399-.512.561a.8.8 0 0 1-.458.163.77.77 0 0 1-.443-.153.76.76 0 0 1-.305-.364.83.83 0 0 1-.025-.483q.059-.273.33-.664.374-.554.714-.68a.74.74 0 0 1 .714.089m-.237.37a.3.3 0 0 0-.211-.055.5.5 0 0 0-.256.133 2.4 2.4 0 0 0-.34.413q-.258.38-.266.586-.007.209.133.306.139.096.315.014.213-.096.478-.487c.177-.26.275-.463.28-.606q.014-.207-.128-.305M22.174 50.644a.8.8 0 0 1 .34.33q.104.205.068.492c-.024.192-.113.423-.266.704-.152.28-.305.487-.453.61a.9.9 0 0 1-.438.212.77.77 0 0 1-.457-.108.83.83 0 0 1-.345-.33.83.83 0 0 1-.074-.478c.02-.187.108-.418.256-.694q.319-.585.645-.748a.75.75 0 0 1 .719.015m-.202.389a.3.3 0 0 0-.217-.035c-.078.015-.157.07-.246.163a2.3 2.3 0 0 0-.295.448q-.222.404-.207.61c.01.138.064.231.167.29q.148.084.31-.02.2-.117.429-.53c.152-.282.226-.488.221-.631s-.059-.236-.157-.29M24.06 51.55a.8.8 0 0 1 .369.295q.125.193.118.483c0 .192-.07.433-.192.728-.123.296-.256.512-.39.65a.8.8 0 0 1-.418.251q-.215.045-.467-.059a.8.8 0 0 1-.374-.295.8.8 0 0 1-.119-.468c0-.187.064-.423.187-.719q.26-.613.562-.812a.74.74 0 0 1 .713-.06m-.157.41a.3.3 0 0 0-.217-.01.48.48 0 0 0-.226.187c-.079.098-.158.256-.251.472-.118.28-.168.493-.148.626.02.137.089.226.192.27s.207.025.31-.049c.123-.093.251-.285.37-.571.123-.29.177-.512.157-.65q-.031-.208-.187-.276M26.029 52.264q.25.08.398.256a.82.82 0 0 1 .168.467q.022.286-.118.744c-.094.305-.202.536-.32.684a.86.86 0 0 1-.39.295.8.8 0 0 1-.472-.014.83.83 0 0 1-.404-.256.8.8 0 0 1-.162-.453q-.024-.279.113-.734c.128-.423.29-.714.478-.861a.73.73 0 0 1 .704-.128m-.119.423a.3.3 0 0 0-.221.01q-.111.044-.207.207a2.4 2.4 0 0 0-.202.497c-.088.29-.118.507-.083.64q.053.2.216.25c.109.035.207.006.305-.078q.17-.155.31-.605.141-.46.09-.66-.051-.206-.212-.256M27.678 52.766l.674.138-.477 2.372-.448-.088.393-1.95-.487-.098zM29.756 53.115l.684.07-.242 2.407-.452-.045.197-1.979-.498-.05zM34.634 53.051c.177-.02.33 0 .468.074a.8.8 0 0 1 .34.36c.088.167.152.413.191.728q.06.479-.015.758a.8.8 0 0 1-.236.424.75.75 0 0 1-.433.177.8.8 0 0 1-.473-.074.82.82 0 0 1-.334-.35q-.133-.244-.192-.718c-.055-.444-.025-.768.088-.985a.74.74 0 0 1 .591-.404m.064.434a.33.33 0 0 0-.197.098c-.054.054-.089.148-.108.27-.015.124-.01.306.015.537.034.306.098.512.182.616a.33.33 0 0 0 .3.142q.169-.02.241-.196.097-.215.04-.68c-.04-.315-.099-.532-.182-.64-.084-.113-.188-.162-.296-.148M36.347 52.84l.675-.153.526 2.363-.448.098-.433-1.94-.487.109.167-.483zM38.725 52.14a.8.8 0 0 1 .472-.02.82.82 0 0 1 .404.286q.182.223.335.675.154.456.138.743a.82.82 0 0 1-.148.463.75.75 0 0 1-.389.26.8.8 0 0 1-.472.025.85.85 0 0 1-.4-.27q-.181-.215-.33-.665-.212-.633-.107-.98a.73.73 0 0 1 .502-.512m.148.414a.3.3 0 0 0-.173.138.5.5 0 0 0-.05.285q.014.19.124.522.145.434.305.566.156.132.325.079c.108-.035.172-.118.197-.241q.05-.231-.098-.675-.148-.45-.31-.59c-.109-.094-.212-.124-.32-.084M40.685 51.377a.8.8 0 0 1 .472-.069.82.82 0 0 1 .434.242q.206.199.398.635.2.441.207.728a.85.85 0 0 1-.098.478.76.76 0 0 1-.36.3.83.83 0 0 1-.472.074.8.8 0 0 1-.424-.231q-.2-.194-.399-.63c-.182-.404-.25-.73-.206-.966a.74.74 0 0 1 .448-.56m.187.394a.32.32 0 0 0-.158.153q-.05.105-.02.29c.02.123.08.296.173.507.123.28.246.458.36.537q.167.118.329.044.153-.068.172-.26c.02-.158-.034-.375-.162-.66q-.192-.437-.37-.557c-.113-.083-.22-.098-.33-.054M42.555 50.427a.76.76 0 0 1 .463-.113.82.82 0 0 1 .453.197c.148.118.3.32.463.595.162.281.256.512.28.704.03.192.01.35-.049.483a.8.8 0 0 1-.33.335.82.82 0 0 1-.462.118.82.82 0 0 1-.443-.187q-.221-.17-.458-.586c-.222-.384-.32-.7-.3-.94a.73.73 0 0 1 .388-.601m.227.374a.32.32 0 0 0-.143.168q-.044.111.01.29.05.184.226.487.23.4.409.498.183.097.33.01.148-.083.148-.276c0-.158-.074-.37-.232-.64-.157-.276-.3-.448-.418-.517q-.184-.103-.33-.02M44.047 49.566l.561-.399 1.408 1.97-.374.265-1.157-1.62-.404.29zM45.972 47.985a.75.75 0 0 1 .428-.202.8.8 0 0 1 .482.104q.253.13.571.492t.414.635a.86.86 0 0 1 .044.488.77.77 0 0 1-.256.393.8.8 0 0 1-.428.207.8.8 0 0 1-.473-.098c-.167-.084-.354-.241-.566-.483q-.437-.5-.482-.861a.75.75 0 0 1 .26-.67m.296.32a.33.33 0 0 0-.108.192c-.015.079.01.172.064.286q.087.168.315.433.303.345.502.404.198.059.33-.054.126-.11.088-.3-.044-.23-.354-.587-.319-.358-.512-.423c-.133-.044-.241-.03-.33.05M47.257 46.848l.473-.502 1.772 1.65-.31.334-1.453-1.354-.34.364-.137-.492zM50.161 42.924a.75.75 0 0 1 .345-.325.8.8 0 0 1 .492-.054c.187.03.424.128.694.286q.414.243.591.472t.192.448a.77.77 0 0 1-.123.453.8.8 0 0 1-.34.33.8.8 0 0 1-.477.054q-.275-.045-.69-.28-.574-.339-.728-.67a.73.73 0 0 1 .04-.714m.383.212c-.039.069-.054.138-.039.217a.5.5 0 0 0 .153.25q.133.135.438.31c.266.158.463.232.6.227q.207-.001.296-.157.087-.147-.01-.315-.11-.207-.517-.443-.414-.243-.62-.242-.215 0-.296.148M51.033 41.433l.29-.626 2.2 1.014-.191.414-1.807-.832-.207.453-.28-.423zM51.914 39.119a.8.8 0 0 1 .27-.39.83.83 0 0 1 .473-.152q.288-.013.739.143.456.154.674.345a.84.84 0 0 1 .281.398q.06.209-.03.468a.78.78 0 0 1-.27.394.86.86 0 0 1-.458.152q-.28.016-.729-.137c-.418-.143-.704-.316-.846-.508a.73.73 0 0 1-.104-.708m.419.133a.34.34 0 0 0 0 .221.5.5 0 0 0 .196.212q.155.105.488.216.435.148.635.104c.133-.03.221-.104.256-.212.034-.108.015-.207-.069-.305-.103-.118-.3-.232-.596-.33-.3-.103-.522-.143-.654-.113q-.208.044-.261.207M52.5 37.1a.8.8 0 0 1 .231-.413.8.8 0 0 1 .453-.197c.192-.025.438 0 .748.069.315.074.547.167.704.275a.83.83 0 0 1 .32.37c.054.138.06.29.02.467a.8.8 0 0 1-.227.419.8.8 0 0 1-.443.197q-.273.044-.738-.07c-.433-.103-.729-.24-.891-.423a.73.73 0 0 1-.172-.694m.428.089a.3.3 0 0 0 .025.217.5.5 0 0 0 .216.191q.168.088.507.168c.3.069.512.084.645.04s.207-.124.236-.237q.036-.163-.098-.295-.168-.162-.625-.271-.465-.11-.665-.05c-.133.045-.212.119-.241.232M52.889 35.422l.093-.685 2.398.32-.06.453-1.969-.26-.069.492zM53.1 33.324l.02-.689 2.418.074-.015.458-1.99-.064-.014.497-.423-.28zM53.1 31.222l-.049-.69 2.413-.166.034.457-1.984.138.034.497-.452-.236zM52.76 28.76a.8.8 0 0 1 .05-.472.8.8 0 0 1 .34-.36c.162-.098.403-.177.714-.23q.474-.084.758-.025.281.058.438.211a.8.8 0 0 1 .202.424q.046.273-.05.472a.86.86 0 0 1-.33.355c-.157.098-.393.177-.708.226-.438.074-.768.064-.985-.04a.73.73 0 0 1-.433-.57m.428-.084q.022.119.108.192.09.077.276.094c.128.01.305 0 .537-.045.3-.054.502-.123.605-.216q.154-.14.123-.31-.03-.163-.206-.237c-.148-.054-.375-.059-.685 0-.315.054-.522.128-.63.217-.108.093-.152.192-.133.305M14.523 16.414a.77.77 0 0 1 .394-.247.83.83 0 0 1 .482.045c.173.064.38.207.61.413.232.212.395.404.474.571a.8.8 0 0 1 .098.468.8.8 0 0 1-.207.414.77.77 0 0 1-.394.25.84.84 0 0 1-.472-.039c-.173-.064-.374-.197-.606-.408q-.486-.443-.566-.788a.71.71 0 0 1 .182-.68m.325.281a.34.34 0 0 0-.084.202c0 .079.03.168.099.27q.102.154.36.39.33.303.531.34.198.037.315-.09c.074-.078.094-.181.054-.3q-.068-.22-.408-.531-.347-.318-.552-.355c-.133-.03-.241 0-.315.084M15.956 15.045l.502-.453 1.59 1.763-.335.3-1.305-1.448-.364.325-.088-.492zM18.019 13.258a.76.76 0 0 1 .438-.162.8.8 0 0 1 .462.142q.238.15.512.527.283.383.35.655.075.272 0 .477a.73.73 0 0 1-.286.36.76.76 0 0 1-.438.167.8.8 0 0 1-.453-.133q-.233-.145-.512-.522-.384-.526-.398-.88a.73.73 0 0 1 .31-.631m.26.34a.3.3 0 0 0-.122.182c-.02.074 0 .167.039.285.044.114.138.266.27.448q.267.364.454.439.184.072.325-.025c.088-.064.128-.162.113-.286q-.022-.23-.296-.6-.275-.377-.467-.458-.192-.083-.325.02M19.973 11.968a.77.77 0 0 1 .453-.118q.227.016.448.187.221.177.457.576c.163.27.256.502.286.684a.8.8 0 0 1-.044.473.74.74 0 0 1-.32.335.8.8 0 0 1-.453.123.8.8 0 0 1-.438-.182c-.148-.109-.296-.3-.458-.571q-.333-.561-.31-.921a.72.72 0 0 1 .374-.596m.226.364a.3.3 0 0 0-.138.168.5.5 0 0 0 .015.285q.05.177.227.478c.152.26.29.418.408.482q.177.092.325.005c.094-.054.143-.147.143-.27q-.002-.228-.231-.626-.239-.405-.419-.502-.184-.096-.325-.015M22.065 10.87a.77.77 0 0 1 .458-.074q.221.039.428.232c.138.133.271.335.4.62.132.286.201.522.216.709a.8.8 0 0 1-.094.468.8.8 0 0 1-.35.3.83.83 0 0 1-.462.079.8.8 0 0 1-.418-.222c-.133-.123-.266-.33-.4-.61-.181-.394-.255-.71-.21-.945a.72.72 0 0 1 .432-.557m.188.384a.3.3 0 0 0-.153.153q-.052.102-.015.285c.02.123.084.286.177.498.128.27.247.448.36.521q.17.112.325.04c.098-.044.157-.133.167-.256q.023-.231-.167-.645c-.133-.286-.252-.463-.37-.542q-.17-.116-.32-.049M23.907 10.166l.64-.221.777 2.245-.423.147-.64-1.84-.463.162.109-.488zM26.161 9.472l.66-.158.551 2.31-.438.103-.453-1.896-.477.114zM28.82 8.896a.8.8 0 0 1 .462.064.8.8 0 0 1 .34.35q.14.243.197.709c.044.31.04.56 0 .743a.8.8 0 0 1-.226.418.75.75 0 0 1-.424.183.8.8 0 0 1-.463-.064.8.8 0 0 1-.334-.335c-.094-.158-.158-.394-.197-.7q-.09-.648.074-.964a.72.72 0 0 1 .576-.404m.069.423a.33.33 0 0 0-.192.099c-.055.054-.084.148-.099.266q-.021.185.025.527.06.444.187.6.131.156.3.133.162-.021.236-.197.09-.213.03-.67-.06-.463-.192-.625-.126-.16-.295-.137M35.205 8.901a.8.8 0 0 1 .423.187.8.8 0 0 1 .237.428q.066.274 0 .739c-.045.31-.114.551-.207.714a.8.8 0 0 1-.33.344.77.77 0 0 1-.458.06.8.8 0 0 1-.428-.188.8.8 0 0 1-.231-.413q-.068-.266 0-.729c.059-.433.172-.733.33-.91a.71.71 0 0 1 .664-.232m-.05.428a.3.3 0 0 0-.211.045.46.46 0 0 0-.167.231q-.075.171-.119.512-.06.444.02.63.081.184.251.207.163.023.28-.123.14-.177.208-.635.066-.464-.015-.655c-.054-.128-.133-.197-.246-.212M37.15 9.32l.654.162-.566 2.309-.438-.109.463-1.895-.473-.118.355-.35zM39.404 9.95l.635.226-.792 2.24-.424-.148.65-1.84-.463-.163.39-.315zM42.004 10.934a.8.8 0 0 1 .344.31q.111.198.089.478c-.015.187-.094.418-.227.699q-.205.421-.418.615a.84.84 0 0 1-.424.227.74.74 0 0 1-.452-.084.8.8 0 0 1-.35-.31.8.8 0 0 1-.094-.463q.022-.273.227-.694.287-.585.596-.763a.72.72 0 0 1 .704-.015m-.178.39a.32.32 0 0 0-.211-.025.5.5 0 0 0-.232.167 2 2 0 0 0-.27.453q-.2.405-.178.605.023.201.173.276.148.076.305-.034c.128-.084.26-.261.394-.542q.208-.419.187-.625c-.01-.138-.07-.232-.167-.28M43.692 11.88l.581.344-1.216 2.038-.384-.231 1-1.674-.419-.251.443-.232zM45.996 13.322a.8.8 0 0 1 .286.369.8.8 0 0 1 0 .487q-.075.276-.355.645-.28.377-.522.532a.8.8 0 0 1-.453.143.7.7 0 0 1-.428-.168.75.75 0 0 1-.285-.369.77.77 0 0 1 0-.472c.044-.178.162-.39.344-.64.261-.35.502-.567.724-.64a.71.71 0 0 1 .694.113m-.246.35a.35.35 0 0 0-.207-.065c-.079 0-.162.045-.26.123a2.1 2.1 0 0 0-.35.394c-.178.242-.276.429-.286.566q-.016.201.123.306.135.097.305.024.215-.088.488-.458.279-.375.3-.58c.015-.138-.025-.237-.113-.306M47.823 14.828a.77.77 0 0 1 .246.394q.053.223-.05.483-.101.264-.418.61-.318.347-.57.473a.85.85 0 0 1-.468.098.8.8 0 0 1-.414-.207.8.8 0 0 1-.251-.393.8.8 0 0 1 .044-.473c.064-.172.197-.374.409-.6.295-.32.556-.513.788-.567a.71.71 0 0 1 .679.182m-.28.325a.32.32 0 0 0-.198-.084.53.53 0 0 0-.27.094 2.5 2.5 0 0 0-.39.354q-.302.333-.339.532c-.025.133 0 .236.089.315q.123.113.305.054.222-.067.532-.408.316-.348.359-.547.043-.201-.084-.315M49.191 16.266l.453.502-1.767 1.585-.3-.335 1.452-1.3-.325-.363.492-.09z"/><path fill="#9ECEED" d="M51.062 32.143c0 10.525-8.527 19.057-19.047 19.057s-19.048-8.532-19.048-19.057c0-10.526 8.527-19.058 19.048-19.058s19.047 8.532 19.047 19.058"/><path fill="#fff" d="m41.516 20.815-.197-.035c-.039-.005-.083-.015-.123-.02q.08.355.064.695c.197.088.39.172.581.266.03-.281.015-.567-.034-.852-.094-.02-.192-.035-.286-.054z"/><path fill="#fff" d="M51.028 27.599c-.035-.133-.064-.266-.099-.399l-.02-.074h.02l.02-.01-.03-.103-.044-.158q-.046-.162-.099-.325l-.044-.128a4 4 0 0 0-.143-.35l-.103-.31c-.03-.093-.064-.181-.098-.275a19.3 19.3 0 0 0-3.392-5.863l.014-.015-.014-.015-.119-.138a3 3 0 0 0-.231-.231 19.4 19.4 0 0 0-4.928-3.998l-.231-.133a19.5 19.5 0 0 0-9.394-2.417c-1.413 0-2.826.153-4.194.453-.084.015-.163.03-.246.05l-.227.053q-1.485.377-2.894.966a20 20 0 0 0-1.364.64l-.37.191h-.004a19 19 0 0 0-2.644 1.733 8.6 8.6 0 0 0-.945.704l-.118.104-.104.088.04.045c-4.303 4.278-6.38 8.694-6.405 14.444 0 1.354.137 2.703.413 4.007.217.985.433 1.743.724 2.565a19.5 19.5 0 0 0 3.899 6.504c.06.074.138.152.202.216a19.52 19.52 0 0 0 14.228 6.184c8.078 0 15.197-4.864 18.136-12.387v-.02l.05-.108q.05-.141.103-.276.626-1.715.92-3.52c.438-2.574.266-5.39-.275-7.704zm-18.935-14.39c.158 0 .31 0 .468.005-.59.044-1.162.133-1.723.255a7 7 0 0 0-.517-.182 19 19 0 0 1 1.772-.083zm14.912 9.019c-1.467-.857-3.244-1.472-5.312-1.827a4.4 4.4 0 0 0-.67-1.275l-.285.074-.157.044-.045.015c.015 0 .03-.01.045-.015l.157-.044.286-.074c1-.256 1.9-.379 2.693-.379.492 0 .945.05 1.349.148.871 1.044 1.536 2.186 1.94 3.333M42.21 45.67c-.044.128-.093.252-.138.374q.073-.183.138-.374c.6-1.698.936-3.692.99-5.937 1.895-.596 3.57-1.536 4.869-2.742.256 2.033.078 3.884-.522 5.514-1.393 1.383-3.23 2.476-5.332 3.165zm5.184-2.796c-.02.054-.044.103-.064.158l-.103.226q.051-.11.103-.226.036-.076.064-.158m-19.313 6.833a24 24 0 0 1-4.194-1.575l-.06.162-.014.045q-.043.126-.079.231a24 24 0 0 0 4.2 1.57c.945.257 1.9.453 2.845.586q.029-.022.064-.044-.029.023-.064.044a1.8 1.8 0 0 1-.512.237 18.8 18.8 0 0 1-6.661-1.92c.02-.099.06-.246.133-.473l.079-.231.014-.045.06-.162c.29-.798.768-1.96 1.432-3.461l.074-.162a25.987 25.987 0 0 0 7.975 2.407l-.044.108c-.674 1.522-1.359 2.63-2.053 3.309a23 23 0 0 1-3.185-.626zm3.107.7-.005.004zm-13.652-6.863c-.06-1.03.256-2.329.935-3.875.01-.03.025-.054.035-.084.04-.083.078-.172.118-.255l-.118.255c1.767 1.817 3.943 3.412 6.311 4.638l.143-.325c.03-.064.054-.123.084-.187-2.369-1.23-4.535-2.836-6.292-4.657.797-1.65 1.94-3.441 3.392-5.322.03-.034.054-.074.084-.108-.03.034-.06.074-.084.108 1.58 1.625 3.52 3.057 5.637 4.155a216 216 0 0 0-2.742 5.824c-.03.064-.055.123-.084.187l-.143.325-.079.177c-.654 1.482-1.127 2.639-1.408 3.446q-.02.053-.034.104c.01-.035.024-.07.034-.104-2.18-1.137-4.18-2.624-5.794-4.307zm5.71 4.558-.01.035q-.027.082-.049.157c-.054.178-.098.33-.123.463a18.9 18.9 0 0 1-5.356-4.352l-.03-.088c1.571 1.55 3.462 2.914 5.51 3.977.014-.049.034-.103.049-.157l.015-.035zm-5.7-4.42v-.074s-.01-.04-.01-.064v.137zm-2.88-11.028c.812-1.595 2.072-3.156 3.751-4.643.069-.064.143-.123.212-.187l.152-.128.104-.088c1.713-1.443 3.722-2.728 5.981-3.826.483 1.27 1.27 2.53 2.29 3.658a53 53 0 0 0-5.032 5.386c-.05.06-.093.118-.143.177l-.133.168-.103.133c-1.457 1.856-2.604 3.633-3.422 5.282l-.123.256c.04-.084.084-.172.123-.256-1.659-1.831-2.919-3.88-3.657-5.932m12.263-16.763q.045.001.089.01c1.994.24 4.061.9 6.144 1.964-.286.305-.493.66-.616 1.049a28 28 0 0 0-4.145-.32c-1.093 0-2.171.068-3.225.206a6.35 6.35 0 0 1 1.842-2.9q-.045 0-.089-.01m6.784 2.264c.852.463 1.698.99 2.53 1.576a29 29 0 0 0-3.076-.714q.17-.486.546-.862m8.68 13.84c-.015-.06-.025-.12-.04-.178l-.05-.222a2 2 0 0 0-.048-.201 37 37 0 0 0-2.506-7.168 3.5 3.5 0 0 0 1.142-.665 27.9 27.9 0 0 1 4.642 6.1l.104.187q.062.11.123.221c1.127 2.107 1.87 4.21 2.215 6.252l.015.099.03.187c0 .03.01.064.014.094 0-.03-.01-.064-.014-.094l-.03-.187-.015-.099c-1.245 1.226-2.89 2.186-4.765 2.792v.472c0 .035 0 .074-.005.109v-.581c0-2.27-.276-4.662-.817-7.119zm-4.279 7.886c-.63 0-1.265-.03-1.915-.094-.005.03-.015.06-.02.084.005-.03.015-.06.02-.084a69 69 0 0 0 1.162-7.3c.005-.065.015-.129.02-.193l.024-.226c.005-.064.015-.128.02-.192.251-2.565.355-5.046.315-7.39a4.897 4.897 0 0 0 1.58-.128 37 37 0 0 1 2.437 7.183q.024.088.04.182l.049.222c.015.069.03.133.044.202.527 2.466.778 4.869.754 7.143-1.428.399-2.95.6-4.535.6zm4.53-.542v.291c-.005.054-.005.103-.01.157v-.359c0-.03.005-.06.005-.089zm-7.045.38c-.015.059-.025.113-.04.172l-.049.206c-.015.07-.035.143-.05.212-.546 2.329-1.176 4.372-1.875 6.08a25 25 0 0 1-3.412-.674c-1.565-.424-3.101-1-4.558-1.714-.025.06-.05.114-.08.173.025-.06.05-.113.08-.172a251 251 0 0 1 2.8-6.012l.094-.197c.03-.059.055-.118.084-.172a412 412 0 0 1 3.299-6.675l.088-.173.104-.202.088-.177a336 336 0 0 1 3.363-6.484c.33.153.674.276 1.024.37q.362.102.733.152v-.167.172a68 68 0 0 1-.399 7.375q-.01.095-.02.197l-.024.226c-.005.064-.015.128-.02.192a70 70 0 0 1-1.22 7.296zm.507.487-.015.069zm-2.64 6.469-.014.034zM22.529 33.26a53 53 0 0 1 4.992-5.43c.02-.02.04-.034.054-.054l-.054.054a15.6 15.6 0 0 0 3.89 2.87c-1.173 2.265-2.3 4.5-3.354 6.651-2.077-1.078-3.982-2.49-5.528-4.086zm10.117-13.888q-.089-.017-.178-.024c.06.01.119.015.178.024m.054-.433h.015zm-.03 2.151c.178.439.443.877.783 1.27a53 53 0 0 0-5.844 4.663c-.98-1.083-1.728-2.29-2.185-3.506a34.3 34.3 0 0 1 7.246-2.427m-4.701 6.317q-.076.066-.143.133.076-.067.143-.133a54 54 0 0 1 5.79-4.716q.599.59 1.368 1.018a305 305 0 0 0-3.436 6.445 15 15 0 0 1-3.722-2.747m3.638 2.92-.103.201c-.02.04-.045.084-.064.123.02-.04.044-.079.064-.123zm2.21-8.213c.05-.03.094-.064.143-.093a4.2 4.2 0 0 1-.674-1.059 32 32 0 0 1 3.121-.447q-1.206.68-2.447 1.501-.067.047-.143.094zm-6.518 5.194q-.05.045-.093.089zm12.18-3.638.044.094c-.014-.03-.03-.064-.049-.094a31 31 0 0 0-1.452-2.629c.842.645 1.649 1.344 2.417 2.083q.032.029.064.064-.032-.029-.064-.064a3.1 3.1 0 0 1-.965.546zm-.423.123q-.46.104-.965.104c-.119 0-.242 0-.365-.015a42 42 0 0 0-.162-2.826 31 31 0 0 1 1.487 2.737zm-1.32.434v-.168c-.005-.044-.005-.094-.005-.138v.306zm-.438-6.849q.147.03.3.074.57.154 1.093.419.05-.067.094-.133-.047.066-.094.133a61 61 0 0 0-1.226 1.777c-.03-.822-.088-1.58-.167-2.265zm3.594 5.583a2 2 0 0 0-.094-.088c.03.03.064.059.094.088m-.148-.138a28 28 0 0 0-2.412-2.043c.994.325 1.954.7 2.87 1.118a2.2 2.2 0 0 1-.458.925m-2.53-2.752c.782-.32 1.536-.59 2.245-.797.26.325.462.674.6 1.024q-1.366-.19-2.845-.227m2.225-1.245q-.148.044-.295.093c-.729.232-1.497.527-2.3.877.444-.63.852-1.206 1.236-1.709a5.4 5.4 0 0 1 1.064.837c.098-.03.197-.064.295-.093zM39 17.437a6.5 6.5 0 0 0-1.782-.615c-.187-1.295-.467-2.284-.842-2.944A15.659 15.659 0 0 1 40.7 15.41c-.419.374-.99 1.054-1.704 2.029zm-1.723 6.39a5 5 0 0 1-.58-.127 5.6 5.6 0 0 1-.887-.32c.468-.881.92-1.709 1.34-2.477.073.926.117 1.906.132 2.92zm-1.866-.644q.001.001-.004.01s0-.005.005-.01a5.4 5.4 0 0 1-1.152-.842 39 39 0 0 1 2.51-1.576c-.428.749-.88 1.561-1.354 2.418zm-1.348-5.327c.285-.197.625-.355.994-.458.522.625 1.029 1.32 1.516 2.073a27 27 0 0 0-2.51-1.615m2.141 2.27a32 32 0 0 0-3.244.452c.059-.01.113-.02.172-.034a2.7 2.7 0 0 1-.079-1.108v-.005c1.054.173 2.107.409 3.146.7zm-7.596-1.069q1.891.002 3.835.276v.015q-.095.643.084 1.31c.014 0 .024-.006.039-.01-.015 0-.025.004-.04.01a34.5 34.5 0 0 0-7.27 2.362c-.35-1.132-.449-2.25-.286-3.323q.03-.199.069-.384a24 24 0 0 1 3.564-.256zm-3.727-.221.222-.03-.217.03zm-2.393 14.469c-.02.03-.044.054-.064.083l-.083.104.078-.104c.02-.03.045-.054.064-.083zm9.069 17.511s.02-.015.03-.025q-.015.016-.03.025c.728.074 1.452.113 2.156.113.187 0 .374 0 .556-.01a19 19 0 0 1-2.993.104q.14-.095.28-.212zm2.235-.335c-.59 0-1.197-.03-1.807-.084.655-.708 1.3-1.782 1.93-3.2.03-.073.064-.142.093-.216l.06-.133.064-.157q.049-.122.098-.242c.69-1.713 1.31-3.756 1.836-6.08a20 20 0 0 0 2.014.104c1.59 0 3.111-.197 4.549-.586-.074 2.28-.438 4.288-1.083 5.976-1.62.458-3.387.69-5.214.69a22 22 0 0 1-2.107-.104q-.049.125-.098.242l-.064.157-.06.133q1.167.118 2.304.118c1.738 0 3.407-.207 4.988-.625-.69 1.546-1.59 2.673-2.684 3.353a17.4 17.4 0 0 1-4.82.654m7.665-4.376a5 5 0 0 1-.143.34q.076-.17.143-.34m.409.438q.06-.134.113-.266c0-.01.01-.02.015-.035 0 .01-.01.025-.015.035 1.954-.6 3.697-1.536 5.1-2.727q-.118.222-.236.423a18.945 18.945 0 0 1-6.833 5.346q1.094-1.058 1.856-2.771zm4.263-16.847c-.025-.04-.044-.084-.069-.123l-.108-.187-.133-.227a28.2 28.2 0 0 0-4.623-5.907c.276-.32.463-.69.571-1.093 2.191 1.068 4.067 2.373 5.583 3.889l.074.074.128.133c.088.088.172.182.256.27 1.378 1.487 2.333 3.078 2.845 4.727v.015q.001-.008-.005-.015a9.13 9.13 0 0 1-2.235 4.608c-.384-2.024-1.152-4.087-2.289-6.154zm-4.716-7.715.138.064.147.074a2 2 0 0 0-.147-.069l-.138-.064zm7.119 14.509s-.005-.044-.01-.07c0 0 .005.045.01.07m-.217 5.16c.423-1.551.497-3.275.221-5.13a9.6 9.6 0 0 0 2.378-4.254c.035.192.07.384.089.566a18.74 18.74 0 0 1-2.196 8.167s0 .01-.005.01c-.054.104-.113.207-.167.306q-.214.383-.443.758a6 6 0 0 0 .123-.424m2.466-11.481c-.6-1.517-1.575-2.96-2.855-4.274q-.238-.242-.483-.477c-1.516-1.433-3.406-2.698-5.587-3.717l-.581-.266a29 29 0 0 0-2.51-.955 24 24 0 0 1 2.446.256c.044.005.084.015.123.02l.197.034q.146.024.285.054c2.122.404 3.939 1.093 5.401 2.043q.032.024.064.04l.128.084c.143.098.28.196.419.3.822.625 1.486 1.329 1.964 2.077a18.8 18.8 0 0 1 1.01 3.825v.01c.019.123.038.242.053.365.05.35.084.704.113 1.058a8 8 0 0 0-.177-.482zm-3.13-7.557c-.345-1.177-.95-2.353-1.773-3.446l.03.014a19 19 0 0 1 3.204 4.648 9.5 9.5 0 0 0-1.462-1.221zm-2.507-4.205c-.172-.162-.35-.325-.526-.482q.266.237.531.482zm-.398-.078-.178-.03a6 6 0 0 0-.807-.05c-.886 0-1.905.158-3.038.478a6.2 6.2 0 0 0-1.314-1.083c-.044.06-.089.114-.133.173l-.079.108s-.034.05-.054.074c.02-.025.035-.05.054-.074l.08-.108q.065-.091.132-.173c.926-1.196 1.472-1.733 1.802-1.979 1.26.724 2.412 1.63 3.362 2.634l.178.03zm-7.98-1.586a5.3 5.3 0 0 0-1.62.064l.073.089.119.143q.103.124.206.256.326-.051.665-.05.316.001.64.04c.094.66.167 1.398.212 2.196a23 23 0 0 0-1.728-2.442l-.118-.143-.074-.089c-1.157-1.368-2.358-2.382-3.594-3.027a12 12 0 0 1 2.117-.182q1.01.001 2.058.157c.443.571.797 1.595 1.038 2.988zm-6.14-2.875.118.05s.025.01.04.02l-.04-.016-.118-.049zm-1.723-.408q.561.036 1.137.206c-1.24.38-2.348.97-3.239 1.723.03 0 .054.006.084.01l.177.02c.148.02.3.04.448.064.91-.699 2.038-1.226 3.289-1.54 1.304.56 2.604 1.565 3.87 2.992a3.8 3.8 0 0 0-1.168.61c-2.028-1.072-4.041-1.762-5.996-2.062-.148-.024-.3-.044-.448-.064l-.177-.02c-.03 0-.054-.004-.084-.01q-.717-.073-1.398-.073c-.9 0-1.758.098-2.56.29a18.7 18.7 0 0 1 6.06-2.146zm-7.586 3.136s-.02.01-.03.01c0 0 .02-.01.03-.01 1.21-.537 2.575-.808 4.066-.808a12 12 0 0 1 1.039.045 1 1 0 0 1-.094-.01 6.8 6.8 0 0 0-1.782 3.062c-2.24.354-4.243 1.01-5.966 1.95q-.095.05-.183.103l.183-.104c.497-1.624 1.412-3.052 2.732-4.238zm-2.59 2.136q.31-.31.635-.605a9.5 9.5 0 0 0-1.413 3.072 12.2 12.2 0 0 0-2.594 2.102 19 19 0 0 1 3.367-4.574zm-.709 2.427s-.02.01-.03.02q.015-.006.03-.02m-4.106 5.75.104-.344v-.01c.138-.448.295-.896.448-1.305.783-1.29 1.905-2.412 3.328-3.347q.192-.125.384-.241l.152-.094.074-.044c1.718-1.005 3.747-1.713 6.026-2.112-.015.088-.034.177-.044.27-.177 1.167-.07 2.378.315 3.604-2.26 1.073-4.278 2.334-6.001 3.752-.074.059-.148.123-.222.182l-.157.133-.099.083c-1.654 1.438-2.924 2.95-3.786 4.505-.049.088-.093.177-.143.266q.068-.134.143-.266c-.546-1.812-.694-3.609-.428-5.361v-.025.01q-.052.168-.103.345-.17.59-.296 1.196.133-.606.296-1.197zm-.723 5.21c0-1.035.083-2.068.25-3.083.06 1.167.286 2.354.68 3.545-.044.093-.083.182-.128.276a9.3 9.3 0 0 0-.615 1.905 19 19 0 0 1-.182-2.644zm.487 4.282c0-.99.236-2.038.7-3.106.787 2.028 2.057 4.027 3.706 5.819l-.103.226c-.61 1.389-.935 2.595-.965 3.609q-.007.274.015.532v.069h.005v-.07a4 4 0 0 1-.02-.531 18 18 0 0 1-2.053-2.83 18.6 18.6 0 0 1-1.28-3.718zm37.406-4.278c0-10.525-7.744-18.255-17.58-19.003 9.836.748 17.58 8.97 17.58 19.003"/><path fill="#D4D3D2" d="m19.097 29.558.526.089c.07.01.138.024.207.034.158.025.315.054.473.079l-.118-.089c-.163-.128-.325-.25-.488-.379q-.06-.049-.128-.098a87 87 0 0 0-.994-.758c-.054-.04-.113-.084-.168-.123a1.65 1.65 0 0 0-.605-.286c-1.132-.241-2.427-.561-3.692-1.117a12 12 0 0 1-.768-.37 3 3 0 0 0-.626-.24c-.054-.016-.123 0-.197.014l-.049.01v.069c0 .078 0 .157.035.192l.123.137c.221.256.448.517.719.704.63.434 1.329.808 2.107 1.128.763.31 1.6.57 2.52.783.37.083.749.152 1.123.216zM23.39 33.989c-.596.035-1.202.035-1.788.04h-.044c-.344 0-.69 0-1.039.01-.206 0-.423.029-.674.078-.069.015-.158.084-.163.113-.005.03.055.133.109.163.27.138.546.275.827.364.738.227 1.487.32 2.215.345.665.024 1.31-.01 1.91-.05.463-.03.921-.088 1.374-.142 0-.025-.01-.05-.015-.074-.024-.133-.044-.271-.064-.404l-.03-.221a7 7 0 0 1-.034-.32c-.01-.099-.02-.192-.024-.29-.887.22-1.729.349-2.56.398zM20.21 31.4q.396.057.802.093c.354.035.714.064 1.063.094.261.02.517.039.778.064l-.044-.02c-.104-.044-.212-.089-.306-.153l-.256-.167c-.423-.27-.856-.556-1.265-.867-.172-.133-.32-.221-.536-.25l-.345-.055-.059-.01-.69-.103a56 56 0 0 1-2.535-.433h-.014c-.37-.074-.729-.192-1.078-.305-.271-.09-.552-.183-.832-.252-.119-.03-.257 0-.404.04l-.118.03.049.098c.064.128.128.25.216.33.67.576 1.468.99 2.383 1.23q.229.061.463.114c.812.197 1.674.369 2.585.507q.073.01.147.02zM23.675 31.897c-.723.113-1.467.162-2.25.138-.26-.01-.521-.025-.792-.045q-.868-.073-1.826-.256a32 32 0 0 1-.773-.162c-.296-.07-.601-.094-.867-.118-.044 0-.103.024-.167.049l-.03.015.01.024c.03.064.054.128.094.172a.8.8 0 0 0 .231.188q.33.16.655.33c.512.265 1.043.536 1.595.723.26.089.532.163.802.227 1.531.364 3.235.369 5.288.014.088-.014.172-.034.26-.049 0-.103-.004-.212-.01-.315-.733-.153-1.432-.364-2.032-.881a.3.3 0 0 0-.202-.06zM17.733 24.33l-.108-.025-1.123-.246c.08.517.62 1.295 1.276 1.634.128.07.265.119.398.148l-.443-1.516zM16.438 25.787a10.7 10.7 0 0 1-2.525-.635q-.006.001-.02-.005a16 16 0 0 1-.62-.25 95 95 0 0 1-1.054-.478c-.379-.173-.773-.355-1.162-.522a1.8 1.8 0 0 0-.423-.104c-.04-.005-.084-.014-.123-.02.211.498 1.152 1.222 2.323 1.896 1.408.808 3.151 1.55 4.392 1.772-.473-.413-.734-.955-.793-1.649zM30.956 42.26c-.014.108-.024.217-.044.325a6.8 6.8 0 0 1-1.108 2.81 9 9 0 0 1-.586.779c-.142.167-.275.344-.433.546q-.087.118-.182.241.065.016.123.025c.118.025.202.044.27.03.892-.168 1.562-.601 1.98-1.26a2.8 2.8 0 0 0 .29-.611c.296-.862.256-1.768-.123-2.816a4 4 0 0 0-.182-.113s0 .03-.005.044M18.102 26.334l-.221-.104-.763-.354c-.03.512.28 1.132.733 1.496a1.18 1.18 0 0 1 .108-.802q.062-.12.143-.232zM27.47 45.046c-.171.158-.339.32-.482.483a.25.25 0 0 0-.049.172c.01 0 .079.02.128.025h.084c.152 0 .315-.005.453-.05a4.6 4.6 0 0 0 1.477-.782c.527-.429.945-.98 1.24-1.65a2.16 2.16 0 0 0 .133-1.388 7 7 0 0 1-.433-.34c-.482 1.285-1.305 2.418-2.545 3.525zM33.074 42.988h.01c0-.078.01-.152.014-.226v-.03c-.04.02-.079.045-.123.064.03.064.064.128.094.188z"/><path fill="#D4D3D2" d="M29.903 44.46c-.227.187-.453.38-.684.571-.222.188-.449.375-.67.566-.05.04-.089.138-.084.163.02.044.123.103.158.099q.289-.06.453-.178c.172-.123.325-.27.462-.433q.331-.397.552-.95l-.187.157zM27.88 30.804c-.32-.03-.7-.064-1-.109-.103-.014-.197-.034-.276-.049q-.709-.163-1.28-.453c-1.314-.664-2.53-2.18-1.614-4.258.172-.39.34-.827.531-1.379.217-.63.119-1.25-.295-1.846-.419-.6-1.029-1.039-1.817-1.3a136 136 0 0 0-5.115-1.58c-3.958-1.142-7.478-2.451-10.757-4.002l-.197-.094c-.595-.27-1.22-.512-1.826-.748l-.532-.207c-.083-.034-.187-.034-.315-.04h-.113c.197.38.482.596.758.803l.044.035c.453.34.926.67 1.448 1.009l.059.04c.64.408 1.295.792 1.95 1.161.497.28.994.547 1.476.808l.08.039c1.555.827 3.16 1.684 4.897 2.151 1.123.305 2.275.586 3.388.862q.302.077.605.152c.113.03.232.06.345.084.35.089.699.172 1.048.261.7.177 1.497.38 2.117.926.374.325.497.748.365 1.23-.458 1.645-.286 3.348.502 5.056.748 1.625 1.94 2.634 3.54 3.023q-.001-.035.004-.064v-.02q.001-.028.01-.049c0-.01 0-.015.005-.024 0-.015.01-.03.015-.04 0-.01.005-.015.01-.024l.02-.035c.004-.01.01-.015.02-.024.009-.01.014-.02.024-.025q.015-.014.03-.02c.01-.005.019-.015.029-.02a.2.2 0 0 1 .044-.02c.01 0 .02-.009.03-.014.03-.01.059-.02.098-.03.03-.01.07-.014.118-.029l.045-.01q.131-.03.256-.069c.024-.005.044-.015.069-.024.064-.02.123-.045.182-.064.02-.01.04-.015.059-.025a3 3 0 0 0 .216-.098c.015-.005.025-.015.04-.02.059-.03.113-.064.167-.094q.03-.017.06-.034.079-.052.152-.108c.01-.01.024-.015.034-.025q.09-.068.163-.143l.04-.04a3 3 0 0 0 .152-.172c.044-.059.088-.113.133-.177-.08-.01-.163-.015-.251-.024zM34.127 42.102l-.035.025c-.024.015-.044.034-.069.05.03.048.055.093.09.132 0-.069.009-.138.014-.207M24.522 35.55q-.066.001-.133.01c-.551.039-1.107.049-1.688.063q-.346.006-.7.02c.512.38 1.857.625 3.107.66.487.015.955-.01 1.359-.064a13 13 0 0 1-.123-.409c-.005-.024-.015-.054-.02-.079-.035-.128-.069-.25-.099-.379-.556.07-1.132.143-1.698.182zM26.816 40.251a9 9 0 0 1-.758.62q-.161.12-.315.237-.274.199-.542.403a1 1 0 0 0-.157.163l-.05.054.01.025 1.02-.084h.034v.443l.724-.226-.251.625.856-.222v.054l-.01.04c0 .044-.01.079-.01.108-.004.06-.01.103-.02.148-.024.133-.019.231.02.28.025.03.06.05.114.055h.005c.083 0 .236-.114.28-.207.31-.66.793-1.197 1.487-1.645.06-.039.123-.073.182-.113-.049-.049-.103-.098-.152-.147-.015-.015-.025-.025-.035-.04-.05.025-.103.044-.152.07-.035.014-.07.034-.109.048l-.034.015-.03-.02c-.172-.108-.418-.03-.67.212-.142.138-.093.207.02.34.03.04.064.074.089.118l.025.044-.547.6-.143.158-.064-.113-.192-.34-.03.02c-.21.158-.314.217-.403.182-.064-.024-.088-.098-.103-.167-.03-.143-.074-.231-.143-.261-.074-.034-.182-.01-.34.069l-.118.064.025-.133c.02-.098.03-.231-.03-.29-.049-.045-.147-.055-.29-.02l-.084.02.01-.256.615-.143.109-.104c.02-.039.049-.073.074-.113.049-.069.108-.148.098-.192-.064-.364.162-.502.36-.625q.079-.046.152-.099l.084-.073c.083-.074.167-.158.265-.158.168 0 .32-.054.444-.143-.109-.142-.207-.29-.306-.433-.04.044-.073.089-.113.138-.285.345-.576.704-.91 1.014z"/><path fill="#D4D3D2" d="M16.27 22.971c.301.561.803.734 1.345.783l.216.015q-.108-.14-.211-.28c-.335-.473-.542-.921-.547-1.463l-1.378-.256c.054.118.108.227.157.34.143.3.276.59.419.861M27.2 40.483a.3.3 0 0 1 .089-.05c.074-.014.113.05.152.163l.04-.025c.118-.128.202-.28.295-.443.02-.034.04-.074.064-.108-.118 0-.236.005-.36.005h-.063l-.054.054c-.064.064-.123.123-.163.192-.03.054-.034.157-.02.177a.06.06 0 0 0 .025.025zM27.274 41.56c-.054.03-.108.055-.158.084l-.014.06.384.196c.039-.039.078-.083.118-.123a6 6 0 0 0 .285-.31l.02-.133-.113-.03c-.173.08-.35.168-.517.257zM27.417 41.123a.4.4 0 0 0 .034-.128c-.03-.035-.054-.104-.088-.222q.001-.006-.005-.02-.009-.036-.025-.073-.017-.06-.034-.099v-.005a.2.2 0 0 0-.045.044c-.014.015-.024.035-.039.055a2 2 0 0 0-.098.147c-.084.128-.163.251-.252.296l-.093.088v.074c.01.054.015.128.034.143q.081.076.197.054c.153-.024.315-.162.419-.354zM28.766 40.468c-.05.059-.055.098-.05.113 0 .005.035.06.242.06l.083-.045a8 8 0 0 1-.202-.222l-.073.089zM15.085 22.715l.541.177c-.034-.068-.064-.137-.098-.206a5.5 5.5 0 0 1-.316-.758c-.049-.163-.108-.217-.265-.271-2.102-.7-3.737-1.359-5.194-2.102-.217-.109-.424-.222-.635-.335-.424-.232-.891-.399-1.344-.566-.109-.04-.212-.074-.315-.113a1.2 1.2 0 0 0-.365-.05q-.066.001-.133-.005c.133.296.355.438.567.581l.103.07q.997.685 2.038 1.27a26 26 0 0 0 3.953 1.82c.483.178.98.336 1.463.493zM27.855 40.512c-.162.192-.197.31-.192.34.025.089.153.207.266.241.02.005.059 0 .118-.044.153-.104.34-.364.364-.556a.6.6 0 0 1-.049-.129v-.01c0-.014-.01-.034-.015-.053a.3.3 0 0 0-.024-.065q-.016-.038-.025-.054h-.01c-.02 0-.04.01-.064.02l-.059.03c-.093.059-.202.157-.305.275zM28.23 40.06c.029-.01.058-.01.088-.01.049.004.083.054.113.118q.023-.016.044-.025.059-.036.108-.064-.102-.128-.206-.256a6 6 0 0 0-.158.212s0 .015.01.024M20.711 24.532c.128.04.256.069.384.098l.123.03c.128-.251.128-.61 0-.92-.123-.291-.334-.493-.595-.557a.5.5 0 0 0-.113-.015c-.05 0-.099.01-.114.025-.265.246-.379.517-.32.768.06.256.29.463.645.57zM18.742 26.61q-.087-.045-.182-.09l-.014.035a1.33 1.33 0 0 0 .014 1.039 1.763 1.763 0 0 0 .581.704q.23.169.497.27c-.108-.536-.142-1.117.394-1.53l-.138-.03c-.206-.044-.408-.084-.6-.152a5 5 0 0 1-.561-.252zM18.294 24.384c-.01.7.522 1.531 1.182 1.851-.197-.59-.104-1.063.29-1.433zM21.18 26.86v-1.63c-.06 0-.124-.009-.188-.014a6 6 0 0 0-.526-.03h-.07c-.265.01-.413.128-.428.36-.024.33.104.665.35.92.236.247.546.39.861.394M14.164 24.532q.378.131.778.256c.374.118.748.226 1.152.344.138.04.275.084.418.123-.049-.073-.088-.128-.113-.187l-.128-.305c-.148-.344-.3-.699-.414-1.063-.049-.168-.083-.212-.221-.251-1.61-.443-2.993-.955-4.229-1.566-.325-.162-.655-.325-.98-.492q-.09-.047-.187-.094a48 48 0 0 0-1.339-.66c-.138-.063-.305-.078-.482-.093-.05 0-.094-.005-.143-.01.015.044.024.094.04.138.044.172.088.335.172.468.492.768 1.22 1.275 1.94 1.708q.23.14.467.27c.925.518 1.97.97 3.205 1.394.02.005.04.015.054.02zM20.948 27.417h-.192c-.084 0-.168.005-.246.024-.212.055-.375.192-.434.365-.054.162-.01.34.119.487.398.473.974.67 1.54.822q-.044-.155-.093-.305c-.089-.3-.177-.586-.241-.876-.104-.458-.119-.527-.453-.527zM20.495 29.307c-.04-.02-.084-.044-.128-.064.827.95 1.698 1.595 2.712 2.009l-.103-.104c-.212-.221-.414-.428-.552-.674-.24-.443-.497-.734-1.048-.817-.305-.05-.59-.192-.886-.35zM19.466 24.03l.325-1.226-1.556-.32-.384-.079c.035.276.153.551.32.788.305.433.783.763 1.29.832zM33.689 45.514l-.104-.192v.798l.015.039q.029.09.064.172.03.066.06.138c.049.123.098.246.181.315.05.04.153.04.256.035h.09v-.055c.004-.078.014-.152-.01-.201-.153-.306-.316-.606-.488-.926a1 1 0 0 1-.064-.123M43.58 24.63c.127-.03.255-.059.378-.098.355-.118.572-.286.636-.502.068-.217-.015-.478-.242-.773-.059-.079-.108-.109-.177-.109a.5.5 0 0 0-.143.03 1 1 0 0 0-.576.576 1.2 1.2 0 0 0 0 .906l.118-.03zM43.683 25.216l-.182.015v1.63c.625-.02 1.088-.458 1.19-1.133.03-.192.01-.325-.063-.413q-.102-.126-.374-.133c-.187 0-.384.014-.571.034M43.737 28.835c.305-.163.556-.34.743-.537a.53.53 0 0 0 .133-.487.33.33 0 0 0-.211-.247c-.242-.078-.517-.078-.788-.073h-.226a.4.4 0 0 0-.074.147c-.104.394-.197.783-.3 1.196l-.075.3c.055-.019.109-.034.158-.053.212-.074.433-.148.635-.251zM46.809 22.405l-1.91.404.315 1.226c.827-.128 1.61-.93 1.595-1.63M46.193 27.422c.104-.31.084-.616-.054-.862l-1.472.502c.487.38.473.945.355 1.516.566-.236 1.009-.669 1.171-1.156M44.259 29.263a4.6 4.6 0 0 1-1.586.541l-.093.065c-.197.55-.566.964-1 1.378.857-.29 1.975-1.113 2.679-1.98zM46.385 24.394l-1.482.404c.404.36.503.832.296 1.447.64-.305 1.235-1.226 1.186-1.851"/><path fill="#D4D3D2" d="M37.002 31.04q.06.068.118.128.03.036.069.064.102.095.212.182c.325.251.718.419 1.275.537q.065.015.123.044.008.001.015.01c.034.02.069.04.093.064l.01.01c.06.059.093.128.113.221a4.7 4.7 0 0 0 1.059-.438q.745-.426 1.329-1.142c1.482-1.817 1.96-3.958 1.418-6.356-.148-.65.01-1.078.522-1.442.157-.113.354-.251.56-.31l.493-.148a46 46 0 0 1 2.51-.704q.371-.09.735-.172c1.585-.37 3.224-.754 4.745-1.413a47 47 0 0 0 3.796-1.856 49 49 0 0 0 3.318-1.984c.453-.296.881-.645 1.295-.985.123-.098.241-.202.364-.295.06-.05.104-.128.153-.212l.044-.084-.015-.02q-.058-.002-.118.006a.8.8 0 0 0-.3.044c-.148.054-.296.113-.443.167-.561.212-1.142.429-1.689.69-3.254 1.545-6.36 2.752-9.511 3.687q-1.16.347-2.319.68c-1.196.349-2.432.708-3.638 1.077-.69.212-1.57.542-2.25 1.197-.724.699-.935 1.447-.645 2.29.064.191.143.378.217.565.103.256.212.522.29.793l.074.256c.133.438.266.896.231 1.334-.123 1.457-1.255 2.693-2.757 3.003-.27.054-.772.113-1.21.163l-.153.014q-.207.024-.37.04.024.035.055.078c.034.045.064.094.103.138l.07.084z"/><path fill="#D4D3D2" d="M47.045 27.141c.256-.29.413-.586.477-.9q.036-.178.035-.355l-.995.448c.252.33.35.66.296 1.004.069-.064.128-.128.187-.192zM55.035 19.486c-.453.231-.92.477-1.398.674-.847.355-1.723.684-2.57 1q-.68.256-1.359.512a.4.4 0 0 0-.206.177 16 16 0 0 0-.345.817c-.025.069-.054.133-.084.202l.128-.03c1.635-.458 3.013-.984 4.214-1.614.591-.31 1.177-.645 1.758-.985.428-.251.857-.507 1.275-.763l.694-.414c.158-.093.29-.226.433-.364q.082-.08.163-.153l-.02-.044h-.069a1 1 0 0 0-.103-.01c-.035 0-.07 0-.099.015q-.146.044-.3.093c-.354.109-.719.217-1.058.37q-.295.133-.581.28l-.478.242zM47.67 27.83l-.33.074q-.449.117-.802.286a3 3 0 0 0-.842.6c-.275.276-.6.498-.945.729q-.155.102-.31.212h.05c.334-.074.669-.138 1.004-.202q.23-.045.467-.089c.158-.03.32-.064.478-.093.487-.099.97-.207 1.447-.335a11 11 0 0 0 1.812-.65 9.7 9.7 0 0 0 1.826-1.083c.3-.227.537-.561.684-.793.045-.064.05-.128.025-.167q-.038-.05-.128-.05l-.084.01a2.6 2.6 0 0 0-.63.232c-.423.227-.866.433-1.32.615q-1.145.459-2.402.71zM51.771 22.523c-.67.286-1.359.512-2.023.729q-.407.132-.798.266l-.723 1.718.034-.01c.38-.128.763-.251 1.142-.379.891-.29 1.817-.596 2.703-.935q.612-.235 1.142-.493c.96-.463 1.718-.984 2.344-1.595.255-.25.462-.566.66-.866.053-.084.112-.168.167-.251.03-.045.02-.168-.02-.227a.4.4 0 0 0-.192.01c-.28.099-.586.212-.876.35-.404.192-.803.389-1.207.585a40.501 40.501 0 0 1-2.358 1.108zM45.711 30.011q-.272.036-.551.064h-.04l-.354.044c-.596.074-1.137.212-1.536.739-.044.059-.108.089-.167.118l-.045.025-.61.34q-.084.043-.158.088c-.084.05-.172.094-.256.143l-.182.103c.163-.02.32-.034.483-.054.211-.025.423-.044.634-.069q.379-.037.764-.084a54 54 0 0 0 1.994-.25 13 13 0 0 0 1.58-.33c.925-.261 1.713-.616 2.417-1.093.217-.148.428-.345.61-.562.055-.069.08-.133.06-.167-.02-.04-.084-.064-.178-.064h-.044c-.177 0-.374.01-.546.074-.419.152-.847.285-1.29.408-.827.232-1.694.404-2.59.527zM48.231 25.787c-.044.626-.27 1.137-.654 1.536a3 3 0 0 1-.237.217l.178-.06c.275-.098.55-.201.827-.3.773-.28 1.57-.566 2.338-.886 0 0 .01 0 .015-.005.01 0 .015-.005.024-.01.133-.058.271-.118.404-.182a10.7 10.7 0 0 0 2.782-1.915 1.5 1.5 0 0 0 .226-.285l.074-.108-.01-.015-.113.014c-.108.01-.212.02-.305.055-.31.113-.665.246-.995.408q-.404.206-.832.404c-1.132.527-2.358.98-3.722 1.137zM39.045 33.187c.36.069.724.128 1.088.167 2.028.217 3.663.079 5.145-.443q.23-.082.467-.172c.606-.237 1.25-.542 1.817-.995.05-.04.079-.108.113-.187l.02-.044-.04-.015c-.069-.03-.137-.054-.187-.044-.433.069-.876.147-1.304.226-.064.01-.133.025-.197.035l-.212.039c-1.428.26-2.708.34-3.904.251a12 12 0 0 1-.738-.079.53.53 0 0 0-.473.133c-.202.168-.413.335-.655.409-.044.014-.088.024-.133.04-.265.078-.536.152-.802.226 0 .152 0 .3-.01.453zM47.37 23.72c.168-.03.33-.094.478-.183.482-.3.856-.906 1.038-1.747-.054.01-.103.02-.157.034-.182.04-.374.079-.566.098-.424.035-.581.178-.66.596-.03.168-.093.33-.167.483-.025.049-.05.103-.079.152q-.077.14-.153.28c-.054.1-.113.198-.162.296q.221.029.428-.01M36.327 45.4a7 7 0 0 0-.433-.408q-.064-.061-.128-.113c-.01-.01-.024-.02-.034-.035h-.005l-.69-.595c.124.27.271.556.458.817q.154.215.345.409a.85.85 0 0 0 .394.197c.034.01.098-.025.152-.055l.04-.02-.015-.034c-.025-.064-.044-.123-.084-.162M36.652 39.853l.148-.02c.025-.035.02-.133-.01-.202-.005-.015-.015-.03-.02-.044-.059.078-.118.152-.177.231.02.01.035.025.054.035zM31.764 45.79c-.02.147-.035.295-.055.443-.054.507.084 1.058.188 1.432a.67.67 0 0 0 .511.488c.252.049.503-.05.67-.266.123-.158.217-.355.246-.527.05-.295.07-.6.089-.9.01-.114.015-.232.024-.345l-.014-.015.014-.025v-.01l-.059-.374c0-.02-.005-.034-.01-.054-.054-.345-.108-.7-.182-1.039a9.5 9.5 0 0 0-.507-1.644 1 1 0 0 1-.103.034.499.499 0 0 1-.33-.035c-.025-.014-.05-.024-.074-.038-.02.137-.044.27-.064.408-.128.808-.256 1.64-.354 2.467zM35.284 45.17a8 8 0 0 1-.507-.842c-.33-.63-.645-1.28-.95-1.906l-.045-.093q-.16.105-.33.202a7.4 7.4 0 0 0 .094 1.87c.088.458.236.852.433 1.192.222.374.507.684.867.925.403.271.861.502 1.481.374-.236-.516-.551-.984-.851-1.437-.064-.093-.128-.192-.192-.285M31.685 43.299c.064-.183.128-.37.163-.557q-.177-.096-.345-.192.053.245.113.483l.064.27zM36.446 40.92c.167.104.359.129.487.06l.05-.025.295.443.014.02h.04l.069.02c.157.128.285.039.364-.06a1 1 0 0 0-.05-.142l-.029-.084c-.133-.069-.276-.113-.418-.157-.266-.084-.547-.168-.763-.414a.4.4 0 0 0-.212-.113l-.113.088c0 .128.103.276.266.37zM35.81 44.736l.05.03.024.015c.035.024.074.044.109.073.36.29.851.626 1.467.626.162 0 .364-.07.389-.128.034-.084 0-.256-.099-.448-.074-.143-.202-.261-.33-.38-.216-.201-.438-.398-.66-.6-.162-.148-.324-.29-.487-.438-.6-.547-1.171-1.108-1.565-1.812-.089.069-.177.143-.271.207.015.187.03.379.064.561.158.857.635 1.536 1.305 2.29zM31.375 45.593l-.103.197c-.138.266-.28.531-.404.802-.044.094-.015.296.02.325q.082.053.157.025c.064-.025.123-.099.148-.187.084-.316.162-.64.236-.96.01-.05.025-.099.035-.143l.088-.38c-.054.109-.113.212-.167.32z"/><path fill="#D4D3D2" d="M35.668 41.206c.064.044.123.094.182.138q.53.413.847.891c.113.172.216.35.295.537.04.088.197.197.296.197a.15.15 0 0 0 .098-.035c.05-.054.044-.177.034-.276-.005-.059 0-.118 0-.187v-.187l.813.222-.241-.625.728.206c-.02-.211-.02-.31.05-.379q0 .001.01-.005c.073-.064.191-.049.413-.02.157.02.305.03.453.035.049 0 .103.005.152.01l.015-.04c-.226-.181-.468-.354-.7-.526-.757-.556-1.54-1.127-2.077-1.945-.034.05-.073.099-.108.153l.241.251-.064.015-.069.014.119.581-.119-.059-.064-.034c-.049-.025-.098-.054-.152-.069-.044-.015-.094-.015-.148-.015h-.01v.02c0 .044-.01.098 0 .118.094.143.202.305.34.404.05.034.207.015.29-.035.109-.064.207-.167.276-.236l.074-.069.04-.034.605.403h-.684l.201.409c.143.069.247.089.33.064.084-.03.158-.103.217-.236l.044-.094.483.586.123.148-.207-.064a1 1 0 0 0-.084-.02c-.113-.025-.197-.02-.241.015-.054.04-.074.133-.069.275v.119l-.098-.055q-.215-.119-.32-.069-.096.052-.118.266-.007.075-.153.133c-.108.045-.148.025-.167.005q-.136-.11-.217-.088c-.074.02-.138.123-.202.315l-.04.108-.817-.965.158-.158.05.045.132.133c.099.098.197.197.3.285.158.138.261.094.434-.083l-.099-.143c-.059.02-.113.034-.157.015l-.114-.045.123-.088a3 3 0 0 0-.226-.08c-.26-.083-.527-.167-.729-.413a.45.45 0 0 0-.32-.128c-.049.005-.093 0-.137 0q-.054.051-.109.109c-.04.039-.078.078-.123.118q.112.073.217.147zM47.439 25.285c.221-.217.404-.463.532-.704.108-.202.172-.399.187-.566a1 1 0 0 1-.222.123 1.6 1.6 0 0 1-.502.123q-.185.015-.35.015h-.123l-.467 1.58c.344-.093.67-.305.94-.571zM38.981 33.994c-.014.108-.024.212-.044.32-.034.212-.069.423-.118.635 1.23.168 2.5.202 3.648.094q.178-.014.35-.035c.56-.069 1.122-.246 1.663-.418l.099-.035c.108-.034.202-.133.3-.24l.074-.08-.094-.049c-.128-.064-.25-.128-.374-.133-.305-.02-.61-.02-.915-.015q-.163-.001-.325.005h-.3a17.6 17.6 0 0 1-3.93-.369c-.01.104-.019.212-.034.315zM38.011 37.465c1.01-.03 1.876-.251 2.639-.675l-1.378-.073-.94-.05-.148.394q-.081.205-.168.404zM38.484 36.224c.069.01.138.015.212.025a9.2 9.2 0 0 0 2.18-.025q.755-.102 1.458-.345c.098-.034.192-.088.29-.142l.094-.055-.01-.039q-.369-.014-.739-.02c-.191 0-.383-.01-.58-.014q-.616-.015-1.221-.06a29 29 0 0 1-1.458-.152q-.05.208-.108.409c-.04.137-.079.28-.123.413z"/><path fill="#1F406A" d="M26.25 31.966q-.054.015-.099.03c.03-.01.06-.02.099-.03M26.127 32.005s-.03.015-.044.02q.022-.014.044-.02M25.93 32.217s0 .015-.005.024c0-.01 0-.014.005-.024M28.377 30.356c.02-.054.044-.113.059-.168q-.03.088-.059.168M25.955 32.153s-.01.015-.01.024c0-.01.005-.014.01-.024M25.994 32.094s-.015.014-.02.024c.005-.01.01-.014.02-.024M28.446 30.164q.03-.095.059-.197c-.02.069-.035.133-.06.197M37.189 31.237s-.044-.044-.069-.064q.03.036.069.064"/><path fill="#1F406A" d="M61.426 14.597h-.04c-.05.01-.098.01-.148.015a.9.9 0 0 0-.34.054c-.147.054-.295.113-.437.167-.562.212-1.148.434-1.699.694-3.244 1.541-6.35 2.748-9.492 3.683q-1.159.347-2.318.68c-1.197.349-2.432.708-3.643 1.078-.704.216-1.605.55-2.304 1.23-.754.729-.98 1.541-.68 2.422.07.192.148.39.222.572.103.25.212.516.285.777l.074.256c.128.429.261.872.227 1.285-.119 1.403-1.207 2.59-2.654 2.885-.295.064-.881.123-1.354.172q-.045.001-.088.01-.213-.105-.478-.256a2.3 2.3 0 0 0 .212.414c.108-.015.236-.025.369-.04l.153-.014c.443-.05.94-.104 1.21-.163 1.497-.31 2.635-1.546 2.758-3.003.039-.438-.099-.89-.232-1.334q-.036-.132-.074-.256c-.078-.27-.187-.537-.29-.793-.074-.187-.153-.374-.217-.566-.285-.842-.078-1.59.645-2.289.684-.66 1.56-.99 2.25-1.196 1.211-.37 2.447-.734 3.638-1.078l2.319-.68c3.146-.935 6.257-2.146 9.511-3.687.547-.261 1.128-.478 1.689-.69q.222-.08.443-.167a1 1 0 0 1 .3-.044q.06.001.118-.005l.015.02-.044.083c-.05.084-.089.163-.153.212q-.186.147-.364.295c-.413.34-.842.69-1.295.985a50 50 0 0 1-3.318 1.984 46 46 0 0 1-3.795 1.856c-1.522.655-3.161 1.044-4.746 1.413-.247.059-.493.113-.734.172-.847.202-1.694.458-2.51.704l-.493.148c-.207.064-.404.202-.561.31-.512.364-.67.793-.522 1.443.541 2.402.069 4.539-1.418 6.355a4.8 4.8 0 0 1-1.33 1.142c-.329.192-.684.335-1.058.439q.015.052.015.113c0 .108.005.211.005.32.266-.074.537-.148.803-.227.044-.014.088-.024.133-.04.24-.073.457-.24.654-.408a.52.52 0 0 1 .473-.133q.361.051.738.08c1.192.088 2.477.009 3.904-.252l.212-.04c.064-.01.133-.024.197-.034.428-.079.871-.157 1.305-.226.054-.01.118.02.187.044l.039.015-.02.044c-.034.074-.064.148-.113.187-.566.453-1.211.763-1.816.995-.158.064-.316.118-.468.172-1.482.522-3.122.66-5.145.443-.364-.04-.728-.103-1.088-.167-.005.162-.015.32-.03.482 1.266.266 2.585.394 3.93.374h.3q.162-.009.325-.01c.305 0 .61 0 .915.015.123.005.246.07.374.133l.094.05-.074.078c-.099.108-.192.207-.3.241l-.099.035c-.541.172-1.102.35-1.664.418q-.17.021-.35.035a16.3 16.3 0 0 1-3.647-.094q-.001.024-.01.04-.046.208-.099.408c.483.06.97.118 1.458.153.403.03.817.044 1.22.059l.581.015q.37.006.739.02l.01.039-.094.054c-.098.054-.192.108-.29.143a7.7 7.7 0 0 1-1.457.344 9.2 9.2 0 0 1-2.181.025c-.07-.005-.138-.015-.212-.025q.065-.207.123-.413-.127.441-.276.861l.94.05 1.38.069c-.764.428-1.63.65-2.64.679q.088-.198.168-.404c-.133.325-.296.675-.232.537 1.074-.025 1.994-.256 2.802-.714l.039-.02-.025-.202-1.206-.064q.274-.105.542-.172a7.9 7.9 0 0 0 2.27-.423c.112-.04.216-.099.314-.153q.066-.038.138-.074l.044-.024-.049-.237h-.054c-.26-.01-.527-.015-.793-.024-.187 0-.374-.01-.56-.015.029-.099.098-.192.285-.256q.582-.022 1.127-.089c.571-.069 1.137-.25 1.689-.423l.098-.035c.143-.044.251-.162.36-.275.044-.05.093-.099.138-.138l.078-.069-.098-.04a3 3 0 0 1-.178-.083c-.137-.069-.275-.143-.423-.148a11 11 0 0 0-.807-.014c.206-.222.448-.439.792-.616a8 8 0 0 0 .842-.251c.739-.26 1.59-.606 2.324-1.191a.6.6 0 0 0 .153-.237c.014-.034.03-.073.049-.103l.04-.074-.08-.024-.098-.035c-.084-.034-.172-.069-.256-.054a54 54 0 0 0-1.23.212.77.77 0 0 1 .32-.325c1.28-.266 2.318-.685 3.224-1.3.226-.153.448-.36.64-.586.123-.148.103-.256.078-.305-.044-.089-.147-.138-.295-.143-.202 0-.433.005-.635.079-.364.133-.743.256-1.122.364.137-.177.315-.354.556-.517.98-.36 1.866-.837 2.629-1.418.315-.24.561-.585.714-.827.073-.113.078-.226.02-.315-.07-.093-.203-.128-.355-.088a3 3 0 0 0-.66.24c-.394.212-.807.404-1.23.577.044-.143.137-.286.324-.433.104-.04.202-.08.306-.123l.039.113c-.01-.04-.025-.079-.035-.113q.016-.008.04-.015A10.8 10.8 0 0 0 54 24.266c.099-.089.173-.202.247-.305q.051-.076.103-.143l.03-.04-.114-.157h-.039c-.05.015-.099.02-.148.025-.113.01-.231.024-.34.064a9 9 0 0 0-1.009.413q-.332.169-.679.33a1.8 1.8 0 0 1 .512-.59c1.334-.557 2.339-1.182 3.126-1.955.266-.261.478-.581.68-.891q.08-.126.167-.251c.064-.094.044-.276-.015-.374-.059-.094-.27-.07-.344-.045-.286.104-.591.212-.892.355-.403.192-.802.388-1.206.585q-.043.023-.093.045c.069-.163.172-.315.325-.463.753-.418 1.491-.866 2.215-1.3q.348-.206.69-.413c.172-.104.32-.246.457-.384q.096-.095.192-.182l.04-.035-.099-.202h-.143c-.083-.01-.167-.02-.25.01l-.296.089c-.36.108-.729.221-1.073.379q-.253.117-.498.241a.83.83 0 0 1 .242-.389 50 50 0 0 0 3.81-2.25c.458-.3.891-.65 1.31-.994.123-.099.24-.197.364-.296a.7.7 0 0 0 .182-.25q.032-.061.064-.114l.025-.04-.113-.152zm-14.317 8.837q.08-.14.153-.28c.024-.05.054-.104.079-.153.073-.158.133-.315.167-.483.079-.418.241-.566.66-.596.192-.014.379-.059.566-.098.054-.01.103-.02.157-.034-.182.841-.556 1.447-1.038 1.747q-.224.14-.478.183-.206.037-.428.01c.054-.1.108-.203.162-.296m-.148.842h.124c.108 0 .226 0 .35-.015.166-.015.334-.05.501-.123q.111-.051.222-.123a1.6 1.6 0 0 1-.187.566c-.128.241-.31.487-.532.704-.27.266-.596.482-.94.571l.468-1.58zm-.398 2.053.994-.448q.001.184-.034.354a1.9 1.9 0 0 1-.478.901 3 3 0 0 1-.187.192q.081-.517-.295-1.004zm.246-3.924c.015.7-.773 1.502-1.595 1.63l-.315-1.226zm-2.137 4.652 1.472-.502c.138.246.158.552.055.862-.163.482-.606.915-1.172 1.157.118-.572.133-1.138-.355-1.517m.532-.817c.202-.61.108-1.088-.295-1.447l1.482-.404c.049.625-.547 1.546-1.187 1.851m-.507-.517c-.104.68-.566 1.118-1.192 1.133v-1.63c.06 0 .124-.01.183-.015.187-.02.379-.04.57-.034.183 0 .306.049.375.133.074.088.093.221.064.413m-1.24-1.974a1 1 0 0 1 .575-.576.5.5 0 0 1 .143-.03c.064 0 .118.03.177.109.227.3.31.561.242.773q-.104.325-.636.502c-.123.04-.25.069-.379.098l-.118.03a1.16 1.16 0 0 1 0-.906zm-.439 5.086c.099-.41.197-.803.3-1.197a.4.4 0 0 1 .074-.148h.227c.266 0 .546-.004.788.074.108.035.182.123.211.247a.54.54 0 0 1-.133.487 2.9 2.9 0 0 1-.743.537 4 4 0 0 1-.635.25c-.054.02-.108.035-.158.055l.074-.3zm-.433 1.028.093-.064a4.5 4.5 0 0 0 1.586-.541c-.704.866-1.822 1.694-2.678 1.979.433-.413.802-.827.999-1.378zm7.01-.782c.168-.06.37-.074.547-.074h.044c.094 0 .163.024.177.064.02.04 0 .103-.059.167a3 3 0 0 1-.61.561c-.704.478-1.497.832-2.417 1.093a12 12 0 0 1-1.58.33c-.66.099-1.33.177-1.995.251-.255.03-.511.055-.763.084-.211.025-.423.044-.635.069-.162.02-.32.034-.482.054l.182-.103c.084-.05.172-.094.256-.143q.082-.045.157-.089.302-.17.611-.34l.044-.024a.5.5 0 0 0 .168-.118c.393-.527.94-.665 1.536-.739a9 9 0 0 1 .354-.039h.04c.187-.025.369-.044.55-.069a18.7 18.7 0 0 0 3.88-.935zm1.802-2.575c.168-.089.374-.168.63-.232l.084-.01c.06 0 .104.02.128.05q.044.062-.024.167c-.153.232-.385.566-.685.793a9.7 9.7 0 0 1-1.826 1.083q-.85.39-1.812.65c-.478.128-.96.236-1.447.335q-.239.05-.478.093l-.468.089q-.502.095-1.004.197h-.05l.311-.207c.345-.232.67-.448.945-.729.246-.246.522-.443.842-.6a4.4 4.4 0 0 1 .803-.286q.16-.044.33-.074c.836-.167 1.639-.408 2.402-.709.453-.182.896-.384 1.32-.615zm1.394-2.26c.33-.167.684-.295.994-.408a1.2 1.2 0 0 1 .305-.055c.04 0 .074-.01.113-.014l.01.015q-.036.05-.074.108c-.074.103-.142.202-.226.285a10.7 10.7 0 0 1-3.185 2.098c-.01 0-.015.005-.025.01 0 0-.01 0-.015.004-.768.32-1.565.61-2.338.886-.276.099-.552.202-.827.3-.06.02-.118.045-.178.065a3 3 0 0 0 .237-.217q.586-.598.655-1.536c1.363-.157 2.59-.61 3.721-1.137q.42-.198.833-.404m1.344-2.83a90 90 0 0 1 1.206-.586c.29-.138.595-.252.876-.35a.4.4 0 0 1 .192-.01c.04.06.05.187.02.227-.055.083-.114.167-.168.25-.197.306-.404.616-.66.867-.625.61-1.383 1.133-2.343 1.595-.354.173-.729.335-1.142.493-.886.344-1.812.645-2.703.935q-.575.186-1.142.38l-.034.009.723-1.718q.384-.133.798-.266c.664-.217 1.354-.443 2.023-.729.724-.31 1.443-.66 2.142-1 .074-.034.142-.068.216-.107zm1.959-2.462a8 8 0 0 1 1.058-.37c.099-.029.202-.058.3-.093a.3.3 0 0 1 .1-.015q.051-.001.102.005h.07l.02.05c-.055.049-.11.103-.163.152-.143.138-.276.27-.434.364l-.694.414-1.275.763c-.576.34-1.162.674-1.757.985-1.202.63-2.58 1.162-4.215 1.614-.044.01-.088.025-.128.03.03-.069.055-.133.084-.202.113-.285.222-.551.345-.817a.4.4 0 0 1 .207-.177q.679-.26 1.358-.512a69 69 0 0 0 2.57-1c.478-.197.945-.438 1.398-.674.158-.079.315-.163.478-.241q.287-.148.58-.281zM27.958 31.05q-.052.065-.113.123c.04-.04.079-.084.113-.123"/><path fill="#1F406A" d="M38.814 32.005s-.01-.005-.015-.01q.008.001.015.01M38.912 32.074l.01.01zM25.979 33.886c.01.108.025.216.035.32a7 7 0 0 1-.035-.32M37.002 31.04c-.025-.03-.05-.054-.069-.084zM26.92 31.769a2 2 0 0 1-.183.064c.064-.02.123-.044.183-.064M27.402 31.528a2 2 0 0 1-.168.093c.06-.03.114-.064.168-.093M32.473 43.003c.039 0 .078 0 .113-.014a.5.5 0 0 1-.113.014M35.82 40.832c.104-.015.261.05.32.128.197.246.468.33.729.414q.117.035.227.078l-.124.09.114.043c.044.02.093 0 .157-.014l.099.142c-.168.178-.276.222-.434.084-.103-.088-.201-.187-.3-.285q-.066-.068-.133-.133l-.049-.045-.158.158.818.965.039-.108q.097-.287.202-.316.082-.022.217.089c.02.02.064.035.167-.005.093-.04.148-.084.153-.133q.022-.221.118-.266c.069-.034.172-.01.32.07l.103.053v-.118c-.01-.142.01-.231.064-.276q.073-.051.241-.014.038.006.084.02l.207.063-.123-.147-.483-.586-.044.093c-.064.129-.133.207-.217.237q-.124.046-.33-.064l-.201-.409h.684l-.606-.404-.039.035-.074.069a1.3 1.3 0 0 1-.276.236c-.083.05-.24.07-.29.035-.138-.094-.246-.256-.34-.404-.014-.02-.01-.074-.005-.118v-.02h.01a.47.47 0 0 1 .3.084l.065.034.118.06-.118-.582.068-.014.064-.015-.24-.251q-.075.103-.148.207c.004.014.014.03.02.044.029.069.029.167.009.202l-.148.02-.054-.035q-.42.533-.916 1.014c.045 0 .09.005.138 0zm.478-.37c.05 0 .167.06.212.114.221.246.497.335.763.414.138.044.285.088.418.157l.03.084c.02.05.049.128.049.143-.079.098-.207.187-.364.059l-.07-.02h-.039l-.014-.02-.296-.443-.049.025c-.128.064-.32.04-.487-.06-.163-.098-.261-.24-.266-.368l.113-.089z"/><path fill="#1F406A" d="M37.868 44.844c-.083-.162-.226-.295-.354-.413-.217-.202-.438-.399-.66-.6-.162-.149-.325-.291-.487-.439-.596-.546-1.162-1.098-1.551-1.797q-.052.043-.103.079c.393.709.965 1.265 1.565 1.812q.244.222.488.438c.221.197.443.394.66.6.127.118.255.237.33.38.097.191.137.359.097.447-.024.06-.23.128-.388.128-.616 0-1.108-.334-1.468-.625-.034-.03-.068-.049-.108-.074-.01-.005-.015-.01-.024-.014l-.05-.03c-.67-.753-1.147-1.433-1.304-2.29-.035-.181-.05-.373-.064-.56-.114.083-.232.162-.345.24.01-.009.02-.014.035-.024l-.015.207a1 1 0 0 1-.089-.133l-.295.192c.02-.01.034-.02.054-.034l.044.093c.306.625.616 1.27.95 1.905a14.14 14.14 0 0 0 .699 1.127c.306.454.616.916.852 1.438-.62.128-1.078-.103-1.482-.374a2.8 2.8 0 0 1-.866-.925 3.8 3.8 0 0 1-.433-1.192 7.2 7.2 0 0 1-.094-1.87c-.118.068-.231.137-.354.201v.025l-.015.226h-.01c-.03-.059-.064-.123-.093-.187q-.136.076-.276.143-.006-.001-.02.005c.202.477.364 1.01.507 1.644.079.34.133.694.182 1.039 0 .02.005.035.01.054l.06.374v.01l-.02.025.014.015c-.01.113-.02.231-.024.344-.02.296-.044.606-.089.901-.03.172-.118.37-.246.527a.67.67 0 0 1-.67.266.67.67 0 0 1-.511-.488c-.109-.369-.247-.92-.188-1.432q.024-.222.054-.443c.099-.827.232-1.66.355-2.467q.032-.209.064-.408c-.113-.06-.221-.114-.33-.173a4 4 0 0 1-.162.557c-.02-.089-.045-.183-.064-.271a14 14 0 0 1-.113-.483 9 9 0 0 1-.36-.216c.38 1.053.418 1.96.123 2.816a2.8 2.8 0 0 1-.29.61c-.419.66-1.088 1.093-1.98 1.26-.068.015-.157-.004-.27-.029a1 1 0 0 0-.123-.025c.064-.083.128-.162.182-.24.152-.203.29-.38.433-.547.217-.256.414-.512.586-.778a6.94 6.94 0 0 0 1.108-2.811l.044-.325q-.001-.023.005-.044a10 10 0 0 1-.512-.36c.103.488.064.945-.133 1.388q-.45 1.006-1.24 1.65c-.424.34-.916.605-1.477.782-.138.045-.296.045-.453.05h-.084c-.05 0-.118-.025-.128-.025a.25.25 0 0 1 .05-.172c.147-.168.31-.325.481-.483 1.241-1.107 2.063-2.24 2.546-3.525l-.104-.088c-.472 1.285-1.285 2.412-2.525 3.51a7 7 0 0 0-.497.492.36.36 0 0 0-.08.286c.02.093.188.133.252.133h.084c.162 0 .334-.005.492-.06q.54-.176 1-.447c-.055.049-.114.093-.168.142-.074.064-.158.217-.118.315a.34.34 0 0 0 .27.183h.03c.212-.045.384-.109.502-.202.187-.138.35-.296.502-.473q.014.006.035.02-.257.384-.566.753c-.148.172-.28.35-.439.556l-.246.325-.068.089.108.02q.125.022.221.044c.094.02.173.04.246.04h.074c.95-.188 1.664-.656 2.098-1.38h.01c-.133.252-.261.503-.38.764-.059.128-.044.413.07.487a.32.32 0 0 0 .172.054l.103-.02a.39.39 0 0 0 .226-.275c.089-.33.168-.665.242-.994h.068c-.014.142-.034.285-.049.423-.059.532.084 1.098.192 1.482.089.305.32.522.61.58q.075.016.148.016a.83.83 0 0 0 .65-.325c.143-.178.242-.394.271-.591.05-.3.069-.61.094-.911V46.4c.014.04.034.074.049.113.054.138.113.276.217.365.083.073.216.069.344.069h.21699999999999997v-.065c0-.034 0-.073.005-.108a.5.5 0 0 0-.025-.276c-.084-.162-.167-.33-.256-.492a2.9 2.9 0 0 0 .674.62c.345.232.73.434 1.207.434q.214 0 .457-.06l.074-.019-.03-.069c-.24-.546-.565-1.034-.88-1.501q.067.08.142.152c.143.138.345.207.458.231h.044a.46.46 0 0 0 .202-.063l.089-.04.064-.025-.03-.063-.034-.09a.6.6 0 0 0-.103-.196c.29.167.635.29 1.029.29.132 0 .442-.054.511-.206.074-.168-.034-.419-.103-.557zm-8.33.404c-.137.163-.29.31-.462.433a1.15 1.15 0 0 1-.453.178c-.035 0-.138-.055-.158-.099-.005-.025.035-.123.084-.162.221-.192.448-.38.67-.567q.344-.29.684-.57l.187-.158a3.4 3.4 0 0 1-.552.95zm1.92.399c-.01.049-.024.093-.034.143-.074.32-.148.64-.236.96-.025.088-.08.162-.148.187q-.075.029-.157-.025c-.04-.03-.064-.226-.02-.325.123-.27.266-.541.404-.802.034-.064.068-.133.103-.197.054-.109.113-.217.167-.32l-.088.379zm2.782.91c.025.05.02.124.01.202v.055h-.094c-.103 0-.206 0-.256-.035-.083-.069-.133-.197-.182-.315-.02-.044-.04-.093-.059-.138a2 2 0 0 1-.064-.172l-.015-.04v-.797l.104.192.064.123c.172.315.335.62.487.926zm2.146-.945c-.054.03-.118.06-.152.054a.9.9 0 0 1-.394-.196 3.4 3.4 0 0 1-.345-.409 5 5 0 0 1-.457-.817l.689.595.005.005s.024.02.034.035q.064.061.128.113c.143.133.296.266.433.409.035.039.06.098.084.162l.015.035-.04.02zM26.462 36.239c-.404.059-.872.079-1.36.064-1.25-.035-2.593-.28-3.105-.66.236-.01.472-.015.698-.02.581-.014 1.138-.029 1.69-.063q.065-.001.132-.01a38 38 0 0 0 1.698-.182c-.034-.153-.068-.31-.098-.463-.453.059-.91.113-1.373.142-.601.04-1.246.074-1.91.05a8.5 8.5 0 0 1-2.216-.345 5.6 5.6 0 0 1-.827-.364c-.054-.03-.113-.128-.108-.163 0-.03.088-.098.162-.113.246-.05.468-.074.675-.079.344-.005.689-.005 1.038-.01h.045c.585 0 1.191 0 1.787-.039a13.4 13.4 0 0 0 2.56-.399c-.01-.147-.025-.295-.03-.443a5 5 0 0 1-.26.05c-2.054.354-3.762.349-5.288-.015a9 9 0 0 1-.803-.227c-.546-.182-1.078-.458-1.595-.723-.216-.114-.438-.222-.654-.33a.7.7 0 0 1-.232-.187c-.04-.05-.064-.109-.093-.173l-.01-.024.03-.015c.058-.025.122-.054.167-.05.266.02.57.05.866.119q.39.088.773.162c.635.123 1.24.207 1.826.256.271.025.532.04.793.045.783.024 1.521-.025 2.25-.138a.27.27 0 0 1 .202.059c.596.512 1.295.728 2.033.881 0-.103-.005-.202-.005-.305v-.158c-1.6-.384-2.791-1.398-3.54-3.022-.792-1.709-.96-3.407-.502-5.056.133-.478.005-.906-.364-1.231-.62-.542-1.418-.744-2.117-.926-.35-.088-.699-.172-1.048-.26a9 9 0 0 0-.345-.084c-.202-.05-.404-.104-.606-.153-1.112-.276-2.26-.556-3.387-.861-1.733-.468-3.342-1.325-4.898-2.152l-.079-.04c-.482-.255-.98-.526-1.477-.807a33 33 0 0 1-1.95-1.162l-.059-.039a22 22 0 0 1-1.447-1.01l-.044-.034c-.276-.206-.557-.423-.758-.802h.113c.128 0 .226 0 .315.04l.532.206c.605.231 1.23.473 1.826.748l.197.094c3.279 1.55 6.799 2.86 10.757 4.002a142 142 0 0 1 5.115 1.58c.788.262 1.398.7 1.817 1.3.413.596.512 1.216.295 1.847-.192.551-.36.99-.532 1.378-.915 2.078.3 3.594 1.615 4.258q.571.29 1.28.453.12.029.276.05c.3.044.68.078 1 .108.088.01.171.015.25.025q-.06.088-.133.177a2.4 2.4 0 0 0 .207-.3c-.093-.01-.202-.02-.315-.03-.423-.04-.955-.089-1.26-.158a5.6 5.6 0 0 1-1.25-.443c-1.266-.64-2.433-2.097-1.556-4.086.172-.394.344-.832.536-1.388.232-.67.128-1.334-.31-1.964-.433-.626-1.068-1.079-1.88-1.35a128 128 0 0 0-5.12-1.58C13.12 18.56 9.61 17.251 6.335 15.7l-.197-.094c-.6-.275-1.226-.517-1.831-.748q-.267-.104-.527-.207c-.108-.044-.221-.044-.36-.049-.068 0-.137 0-.22-.01l-.114-.01.044.104c.212.472.537.718.847.95l.044.034c.453.345.93.675 1.453 1.014l.059.04c1.127.724 2.318 1.378 3.436 1.969l.079.04.758.403c.241.182.251.27.118.335a25 25 0 0 1-.724-.38c-.433-.236-.905-.408-1.363-.575-.104-.04-.212-.074-.315-.113a1.3 1.3 0 0 0-.404-.06c-.074 0-.148-.004-.231-.014l-.104-.01.035.098c.142.4.413.581.66.744l.098.069q1.22.833 2.506 1.526c.054.093.098.221.137.364-.408-.207-.822-.418-1.24-.61-.163-.074-.345-.089-.527-.104q-.118-.008-.236-.024l-.109-.015.035.103c.025.074.044.153.069.232.044.172.093.354.192.502.507.792 1.25 1.31 1.979 1.752.463.281.95.542 1.477.788.123.143.216.31.3.488-.34-.158-.684-.316-1.029-.463-.143-.06-.29-.084-.453-.113a4 4 0 0 1-.226-.04l-.099-.02.025.099c.143.61 1.536 1.625 3.156 2.466.157.148.31.33.457.537a12 12 0 0 1-.556-.276 3.2 3.2 0 0 0-.655-.25c-.083-.025-.172 0-.26.014l-.104.02-.064.01.01.063c0 .035.005.074.005.114 0 .103 0 .206.064.28l.118.138c.226.261.458.532.744.724.886.61 1.905 1.098 3.076 1.487.153.113.271.256.365.413-.32-.074-.64-.177-.955-.275-.276-.09-.557-.183-.842-.252-.148-.034-.31 0-.468.04-.069.015-.133.034-.202.044l-.098.015.049.084q.05.082.094.172c.069.138.137.276.25.374a6.1 6.1 0 0 0 2.433 1.255c.364.099.748.188 1.142.271.172.099.344.241.517.409q-.283-.058-.571-.123a6 6 0 0 0-.886-.118c-.08-.01-.158.03-.232.059l-.084.034-.073.025.034.069.04.083c.029.07.063.143.113.202a.9.9 0 0 0 .275.222c.217.103.439.216.655.33.517.265 1.054.541 1.61.728q.685.23 1.423.355c.202.113.374.275.536.457-.325 0-.65 0-.97.01-.211 0-.438.03-.694.084-.093.02-.246.113-.265.222-.02.103.083.25.182.305.27.138.551.28.841.369.906.28 1.832.36 2.708.36.197 0 .39 0 .576-.01.158.049.28.123.39.211-.513.03-1.025.045-1.567.06q-.421.008-.866.024h-.138l.094.108c.462.522 2.117.808 3.56.808.285 0 .565-.01.826-.035.123.02.251.054.374.094a5 5 0 0 1-.078-.251zm-4.032-5.77c.137.246.34.458.551.674l.103.104c-1.009-.414-1.885-1.059-2.712-2.009.044.02.084.045.128.064.3.153.58.3.886.35.547.083.807.374 1.049.817zm-.793-1.65q.044.15.094.306c-.567-.153-1.143-.35-1.541-.822a.51.51 0 0 1-.119-.488.57.57 0 0 1 .434-.364c.079-.02.167-.024.246-.024h.192c.335 0 .35.064.453.526.064.29.152.576.241.877zm-1.25-5.626s.064-.025.113-.025c.034 0 .079.005.113.015.261.069.473.266.596.556.128.31.128.665 0 .92l-.123-.029c-.128-.03-.256-.059-.384-.098-.35-.108-.586-.315-.645-.571-.06-.251.059-.527.32-.768zm-.424 2.353c.015-.231.163-.354.428-.36h.07c.177 0 .354.015.526.03l.187.015v1.63a1.23 1.23 0 0 1-.861-.394 1.22 1.22 0 0 1-.35-.921m.074 1.492c-.532.413-.502.994-.394 1.53a2 2 0 0 1-.497-.27 1.9 1.9 0 0 1-.473-.502 2 2 0 0 1-.108-.202 1.3 1.3 0 0 1-.098-.35 1.3 1.3 0 0 1 .083-.689c0-.01.01-.024.015-.034l.182.088c.182.089.37.182.561.251.192.07.39.109.601.153l.138.03zm-.566-.803c-.66-.32-1.192-1.152-1.182-1.85l1.472.418c-.393.369-.487.841-.29 1.432m-1.236-3.751 1.556.32-.325 1.226c-.502-.07-.985-.4-1.29-.832a1.8 1.8 0 0 1-.32-.788l.384.079zm-.389 4.883c-.453-.359-.758-.98-.733-1.496l.763.354.221.104c-.059.078-.103.152-.142.231a1.15 1.15 0 0 0-.109.803zm-.073-1.668c-.655-.34-1.197-1.118-1.276-1.635l1.123.246.108.025.443 1.516a1.5 1.5 0 0 1-.398-.148zm-.704-3.668c.01.541.211.985.546 1.462q.095.14.212.28c-.074 0-.143-.01-.217-.014-.537-.05-1.039-.222-1.344-.783-.148-.27-.28-.556-.418-.861l-.158-.34zm-7.4-1.625a29 29 0 0 1-2.038-1.27l-.103-.069c-.212-.143-.434-.29-.567-.58q.067.002.133.004c.143.005.261.01.365.05q.153.06.315.113c.453.167.92.334 1.344.566q.31.17.635.335c1.452.743 3.086 1.403 5.194 2.102.157.054.216.113.266.27.078.256.196.503.315.759.03.069.063.133.098.206l-.541-.177c-.483-.157-.98-.315-1.463-.492A26.5 26.5 0 0 1 9.67 20.4zm1.23 2.718q-.236-.132-.467-.271c-.719-.433-1.447-.94-1.94-1.708-.083-.133-.128-.296-.172-.468-.015-.044-.024-.093-.04-.138.05 0 .094.01.144.01.177.015.34.03.482.094.448.211.9.438 1.34.66.063.029.122.063.186.093q.486.25.98.492c1.236.61 2.619 1.118 4.229 1.566.138.039.172.083.221.25.114.365.266.72.414 1.064.044.104.088.202.128.305.024.064.064.114.113.187q-.213-.064-.418-.123c-.404-.118-.778-.231-1.152-.344-.271-.084-.527-.168-.778-.256-.02-.005-.04-.015-.054-.02-1.236-.423-2.28-.876-3.205-1.393zm1.936 2.545c-1.177-.674-2.117-1.398-2.324-1.895q.065.013.123.02c.153.024.295.049.423.103.39.167.783.35 1.162.522.005 0 .015.005.02.01.345.157.684.315 1.034.467.207.094.413.172.62.251q.006-.001.02.005c.846.32 1.678.527 2.525.635.06.694.32 1.236.793 1.65-1.24-.222-2.984-.96-4.392-1.773zm2.614 2.89a11.3 11.3 0 0 1-2.107-1.128c-.271-.187-.498-.448-.72-.704l-.122-.137c-.03-.035-.03-.119-.035-.192v-.07l.05-.01c.073-.014.142-.029.196-.014.232.064.444.148.626.241q.384.2.768.37c1.26.551 2.555.871 3.692 1.117.192.04.404.143.606.286l.167.123c.335.25.67.502.994.758l.128.098c.163.128.325.251.488.38l.118.088q-.236-.043-.473-.079-.103-.017-.206-.034l-.527-.089a22 22 0 0 1-1.123-.216 16.3 16.3 0 0 1-2.52-.783zm2.028 2.319c-.152-.04-.31-.074-.463-.114a5.9 5.9 0 0 1-2.382-1.23c-.094-.08-.153-.202-.217-.33l-.05-.099.119-.03c.148-.034.285-.068.403-.039.281.07.562.163.832.252.35.113.714.23 1.079.305h.015c.836.167 1.693.305 2.535.433l.69.103.058.01.345.054c.216.035.364.118.536.251.404.31.842.596 1.266.867l.256.167c.098.064.202.109.305.153l.044.02q-.388-.037-.778-.064-.525-.044-1.063-.094a22 22 0 0 1-.95-.113c-.911-.138-1.772-.31-2.585-.507z"/><path fill="#1F406A" d="M26.019 32.069s.02-.015.03-.02c-.01.005-.02.015-.03.02M26.044 34.427q.028.206.064.404-.037-.201-.064-.404M29.44 41.005c-.06.039-.123.073-.182.113-.69.448-1.177.99-1.487 1.644-.044.094-.197.207-.28.207h-.006a.14.14 0 0 1-.113-.054c-.04-.054-.044-.148-.02-.28a1 1 0 0 0 .02-.149q.001-.044.01-.108v-.04l.01-.053-.857.221.251-.625-.723.226v-.443h-.035l-1.019.089-.01-.025.05-.054c.054-.059.103-.118.157-.162q.267-.206.542-.404c.103-.079.211-.158.315-.236.26-.197.521-.4.758-.62.335-.31.63-.67.91-1.015.04-.044.074-.089.114-.138-.025-.04-.05-.073-.074-.113-.044.054-.094.108-.138.168-.28.34-.57.694-.9 1.004-.33.305-.705.58-1.064.846-.182.134-.364.266-.542.404a1.2 1.2 0 0 0-.177.182l-.074.084-.03.03.084.187 1.01-.084v.025l-.04.049c-.413.487.109 1.206.28 1.157.173-.05-.142.276.173-.05.148-.152.374-.32.615-.452l.286-.074v.014a1 1 0 0 1-.02.133q-.05.259.04.384a.26.26 0 0 0 .206.104h.015c.143 0 .34-.153.4-.28.3-.636.767-1.158 1.437-1.59.069-.045.137-.085.206-.129a12 12 0 0 1-.25-.241c.049.05.103.098.152.148"/><path fill="#1F406A" d="M27.707 39.68c-.098 0-.182.079-.265.158l-.084.073q-.074.054-.153.099c-.197.118-.423.256-.36.625.01.044-.048.123-.098.192a1 1 0 0 0-.073.113l-.109.104-.615.143-.01.256.084-.02c.142-.035.24-.025.29.02.06.059.05.187.03.29l-.025.133.118-.064c.158-.084.266-.103.34-.069.069.034.113.118.143.26.014.07.034.139.103.168.089.035.187-.024.404-.182l.03-.02.191.34.064.113.143-.157.546-.6-.024-.045c-.025-.04-.06-.079-.089-.118-.113-.133-.162-.207-.02-.34.257-.241.498-.32.67-.212l.03.02.034-.015c.035-.014.074-.034.108-.049.05-.025.104-.044.153-.069l-.207-.221-.083.044c-.207 0-.237-.05-.242-.06-.01-.014 0-.053.05-.112.024-.035.049-.06.073-.089-.088-.099-.172-.202-.26-.3q-.051.032-.109.064a.2.2 0 0 1-.044.024c-.03-.064-.064-.113-.113-.118-.03 0-.06 0-.089.01l-.01-.025c.05-.069.099-.142.158-.211-.074-.094-.153-.187-.222-.286a.76.76 0 0 1-.443.143zm-.507.6c.04-.068.099-.127.163-.191l.054-.054h.069q.175-.009.36-.01-.029.05-.065.108a2.7 2.7 0 0 1-.295.443l-.04.025c-.039-.114-.078-.178-.152-.163a.3.3 0 0 0-.089.05c-.01-.01-.015-.02-.024-.025-.015-.02-.01-.123.02-.177zm-.202 1.202a.21.21 0 0 1-.197-.054c-.02-.02-.024-.094-.03-.143v-.074l.09-.088c.088-.045.167-.168.25-.296.03-.044.065-.098.1-.148.014-.02.029-.034.039-.054.014-.02.034-.034.044-.044v.005q.017.038.034.098c.01.025.015.055.025.074 0 .005 0 .015.005.02.034.118.059.187.088.221a.4.4 0 0 1-.034.128c-.108.197-.266.33-.418.355zm.892-.015a3 3 0 0 1-.286.31q-.06.059-.118.123l-.384-.197.015-.059a2 2 0 0 0 .157-.083c.168-.089.34-.178.517-.256l.113.03-.02.132zm.33-1.26.063-.02h.01c.01.01.015.035.025.054.01.02.015.045.024.064q.008.032.015.054v.01c.02.06.035.099.05.128-.025.192-.212.453-.365.557-.059.039-.098.049-.118.044-.113-.035-.241-.153-.266-.241-.01-.025.03-.148.192-.34.103-.118.212-.222.305-.276a.2.2 0 0 1 .06-.03zM39.921 41.625c-.241-.192-.492-.38-.738-.556-.763-.562-1.551-1.138-2.078-1.96-.02.03-.049.07-.078.118.536.818 1.319 1.389 2.077 1.945.231.172.473.345.7.527l-.016.04c-.049 0-.098-.006-.152-.01-.143-.01-.296-.016-.453-.035-.227-.03-.34-.045-.414.02 0 0-.005 0-.01.004-.064.064-.064.168-.049.38l-.729-.207.242.625-.812-.222v.375c.01.098.014.221-.035.275q-.031.036-.098.035c-.094 0-.256-.109-.296-.197a3 3 0 0 0-.295-.537 4 4 0 0 0-.847-.89 3 3 0 0 0-.182-.139c-.074-.049-.143-.098-.217-.148q.065-.058.123-.118-.11.107-.221.212.123.08.241.163c.62.443 1.039.935 1.28 1.51.06.144.266.282.414.282h.005c.083 0 .147-.03.191-.08.084-.088.08-.23.07-.373v-.19299999999999998l.216.06c.128.088.285.211.477.384l.916-.694s-.177-.188-.31-.38q.001-.008.01-.014c.03-.03.157-.01.33.01q.224.029.448.034c.069 0 .133.01.202.015h.049l.079-.222-.035-.03z"/><path fill="#fff" d="m26.403 44.096-.05-.044c-.064-.055-.133-.114-.202-.163q-.204-.141-.226-.32c-.015-.123.034-.256.153-.389.108-.123.216-.236.344-.37l.055-.053-.084-.025c-.094-.05-.128-.157-.153-.25l-.02-.075a.3.3 0 0 1-.187.02c-.093-.035-.133-.128-.167-.212l-.035-.079-.083.099q-.14.168-.28.33c-.63.694-.808.719-1.586.221-.458-.29-.832-.403-1.226-.364-.187.02-.389.044-.551.123q-.393.186-.424.32c-.034.182 0 .374.03.581v.01a.43.43 0 0 1 .167-.182q.14-.074.375.01a.25.25 0 0 0 .162-.064c.335-.414.733-.306 1.083-.212.079.02.153.044.231.059l.207.044-.192.084c-.084.034-.162.044-.241.059-.06.01-.113.015-.163.03q-.139.043-.285.078c-.266.074-.546.148-.763.29-.266.173-.404.4-.394.636.01.217.143.428.374.6a.36.36 0 0 1-.01-.226c.035-.093.119-.157.251-.207 0 0 .02-.02.045-.118a.97.97 0 0 1 .477-.605 1.07 1.07 0 0 1 .842-.074l.094.03-.222.25c-.108.118-.202.232-.305.34-.266.295-.345.512-.222.635.06.064.118.138.173.207.128.167.25.33.448.374l-.197-.187v-.236l.073.005c.138.014.237 0 .286-.05.06-.059.06-.167.06-.285v-.089c.004-.364.147-.596.398-.64.404-.074.793-.128 1.093 0 .216.099.37.33.512.556.054.084.103.163.157.237.04.054.02.133 0 .197l-.01.044q-.014.066-.034.133a.3.3 0 0 0 .128-.128c.03-.054.05-.118.069-.182a1 1 0 0 1 .103-.246c.143-.207.118-.365-.088-.542z"/><path fill="#1F406A" d="m26.491 43.998-.05-.04a2 2 0 0 0-.21-.167c-.104-.074-.163-.148-.173-.232-.01-.083.03-.182.118-.285.103-.118.212-.232.34-.36q.088-.095.192-.197l.192-.197-.261.094q-.135.045-.187.015c-.045-.025-.064-.094-.089-.172a1 1 0 0 0-.054-.158l-.03-.06-.059.035c-.064.04-.118.05-.147.04-.04-.015-.064-.079-.089-.138-.03-.064-.054-.133-.108-.182l-.05-.044-.044.049c-.044.054-.093.108-.138.162-.093.113-.182.222-.275.325-.591.645-.695.66-1.418.197-.3-.192-.758-.438-1.31-.384-.202.02-.413.05-.595.133-.212.103-.463.241-.493.418-.04.207 0 .419.03.63.015.084.03.173.034.252l.035.31.093-.3c.05-.163.099-.296.192-.345.064-.03.153-.025.28.02a.36.36 0 0 0 .296-.109c.271-.334.571-.266.916-.177a.7.7 0 0 0-.133.03q-.14.044-.28.078c-.276.074-.562.153-.803.306-.305.197-.468.462-.453.753.015.32.246.625.64.832l.217.113-.133-.207c-.099-.152-.128-.256-.104-.325.02-.049.079-.093.173-.123.059-.02.098-.084.133-.212a.84.84 0 0 1 .413-.521.92.92 0 0 1 .645-.089l-.084.099c-.108.118-.202.23-.3.34-.325.359-.394.634-.217.812.055.054.109.123.163.191.157.207.33.439.664.439h.015q.091.001.113-.05l.02-.034-.059-.064h-.005l-.251-.241v-.04c.143 0 .246-.024.315-.088.104-.099.104-.246.099-.384v-.084c0-.212.054-.472.29-.512.305-.054.729-.133 1.014 0 .182.079.32.296.453.507.054.084.108.168.163.241l-.02.094-.015.05a3 3 0 0 1-.05.186l-.053.197.118-.04a.56.56 0 0 0 .32-.245c.034-.064.059-.138.079-.207a.8.8 0 0 1 .088-.212c.182-.26.148-.497-.113-.719zm-.098.886c-.02.064-.04.128-.07.182a.36.36 0 0 1-.127.128c.01-.044.024-.089.034-.133l.01-.044c.02-.07.04-.143 0-.197a4 4 0 0 1-.158-.237c-.142-.226-.295-.462-.512-.556-.3-.133-.689-.079-1.093 0-.25.044-.393.27-.398.64v.089c0 .118 0 .226-.06.285q-.072.07-.285.05h-.069v.23l.197.188c-.202-.044-.32-.207-.448-.374a1.4 1.4 0 0 0-.172-.207q-.185-.185.221-.635c.099-.108.197-.222.306-.34l.221-.25-.093-.03a1 1 0 0 0-.34-.055c-.177 0-.35.045-.502.128a.96.96 0 0 0-.478.606c-.024.098-.049.118-.044.118q-.207.066-.251.207a.33.33 0 0 0 .01.226c-.232-.172-.365-.384-.375-.6-.01-.237.133-.463.394-.635.222-.143.498-.217.763-.29q.143-.04.286-.08a1 1 0 0 1 .162-.03.9.9 0 0 0 .242-.058l.192-.084-.207-.044a2 2 0 0 1-.232-.06c-.349-.098-.748-.206-1.083.212-.03.04-.123.074-.162.064-.158-.054-.276-.059-.374-.01a.38.38 0 0 0-.168.183v-.01c-.034-.207-.069-.399-.03-.581q.024-.134.424-.32c.163-.079.36-.104.552-.123.394-.04.773.074 1.226.364.777.497.955.473 1.585-.221q.14-.154.28-.33l.084-.099.035.08c.034.083.073.181.167.21.054.02.113.015.187-.019l.02.074c.024.093.054.202.152.251l.084.025-.054.054c-.128.133-.241.246-.345.369-.118.133-.167.266-.152.389.014.118.093.226.226.32.069.05.138.108.202.162l.05.045c.206.177.235.335.088.541a1 1 0 0 0-.104.246z"/><path fill="#fff" d="M42.723 42.55c-.645-.26-1.256-.157-1.99.335-.536.364-.797.335-1.255-.143-.152-.152-.29-.315-.413-.453q-.053-.059-.098-.108l-.384.3s-.035.044-.055.079a.5.5 0 0 1-.069.113c-.049.05-.123.07-.192.089.384.315.547.477.552.67.01.186-.138.364-.473.679l-.03.024-.024.02c0 .03-.015.069-.025.108a.7.7 0 0 0-.039.281c.035.172.133.35.207.487q.03.058.084.109c-.02-.246.039-.478.334-.645.04-.02.07-.123.089-.187q.112-.378.512-.38h.556c.433.02.694.281.69.685-.006.28.01.458.364.502l.138.015-.365.344c.104-.039.202-.073.286-.128.034-.02.059-.064.088-.113a.6.6 0 0 1 .109-.138c.334-.275.344-.369.093-.709a3 3 0 0 0-.241-.28 7 7 0 0 1-.187-.212.3.3 0 0 1-.054-.226c.02-.089.162-.114.192-.114.487-.034.965.316 1.103.808.014.05.034.084.039.088.217.074.26.207.256.35.064-.094.128-.192.221-.251.242-.148.188-.305.084-.512-.182-.374-.517-.61-.984-.709-.178-.035-.36-.06-.537-.084a4 4 0 0 1-.246-.034l-.29-.044.28-.084c.054-.015.108-.035.157-.05.375-.122.798-.26 1.148.168l.113.064c.182-.025.413-.02.556.182v-.064c0-.093-.005-.177 0-.266.054-.389.02-.448-.31-.58z"/><path fill="#1F406A" d="M42.772 42.427c-.68-.276-1.349-.167-2.112.345-.487.33-.674.305-1.088-.123-.148-.153-.29-.31-.414-.448-.049-.054-.098-.109-.138-.158L38.982 42l-.458.36c-.064.029-.088.093-.113.142l-.044.074c-.03.03-.089.044-.153.059l-.103.03-.108.039.127.113.055.044c.34.276.502.434.507.576.005.138-.138.296-.434.581l-.02.015c-.024.02-.058.044-.068.089l-.03.108c-.03.113-.064.226-.04.34.035.192.144.379.223.526a1 1 0 0 0 .167.202l.074.079.162.182-.05-.241c-.063-.32-.048-.551.242-.709.084-.05.118-.167.148-.266.059-.202.187-.285.404-.28h.526c.36.014.571.221.562.55 0 .232-.01.513.35.611l-.301.286.064.172.064-.024q.066-.029.133-.05c.108-.039.216-.078.32-.142.059-.04.093-.094.133-.153.024-.04.049-.079.078-.108.384-.32.409-.493.118-.891a3 3 0 0 0-.25-.296q-.095-.103-.183-.207l-.03-.103.075-.025c.433-.024.846.281.97.714.014.054.049.153.123.178.197.064.187.167.147.379l-.015.073-.034.197.143-.137c.069-.064.118-.143.167-.217.06-.084.113-.167.177-.212.36-.221.217-.507.133-.68-.202-.408-.566-.669-1.078-.777a6 6 0 0 0-.507-.079c.335-.103.625-.157.891.163.05.059.153.118.227.108.32-.04.467.06.521.354l.064.335.064-.335a1.7 1.7 0 0 0 .02-.374q-.001-.131.005-.24c.06-.424.02-.557-.389-.72zm.26.704c-.009.089-.009.172-.004.266v.064c-.143-.202-.374-.207-.556-.182l-.114-.064c-.35-.429-.777-.29-1.147-.168-.054.015-.108.035-.157.05l-.28.083.29.045c.083.014.162.024.246.034.177.025.36.05.536.084q.71.148.985.709c.103.206.153.36-.084.512a.8.8 0 0 0-.221.246c.005-.138-.035-.276-.256-.345-.01-.005-.03-.04-.04-.088-.137-.493-.615-.842-1.102-.808-.035 0-.178.03-.192.113a.3.3 0 0 0 .054.227q.09.11.187.212.128.133.241.28c.251.34.236.433-.093.71a.6.6 0 0 0-.109.137c-.03.044-.054.089-.088.113-.084.054-.182.089-.286.128l.364-.344-.138-.015c-.354-.04-.369-.217-.364-.502.005-.404-.256-.67-.689-.685h-.556q-.4.001-.512.38c-.02.059-.05.162-.089.187-.295.167-.354.398-.335.645q-.046-.052-.083-.109c-.08-.143-.178-.315-.207-.487a.65.65 0 0 1 .04-.28c.01-.04.019-.08.024-.11l.025-.019.029-.024c.335-.32.477-.493.473-.68-.01-.192-.168-.354-.552-.67.07-.02.143-.039.192-.088a.4.4 0 0 0 .07-.113c.014-.035.029-.07.053-.079l.384-.3.099.108c.123.143.266.3.413.453.458.473.72.502 1.256.143.728-.493 1.344-.596 1.989-.335.33.133.364.192.31.58z"/><path fill="#fff" d="M34.973 27.284c.207-.01.335-.02.522-.03-.477-.719-1.29-1.058-1.723-1.846.31.06.542.103.778.148l.04-.089c-.124-.093-.247-.192-.375-.276-.384-.25-.778-.492-1.162-.743-.423-.276-.817-.596-1.26-.827-.645-.33-1.334-.581-2.077-.556-.37.01-.508.182-.41.536.198.242.39.606.44.857.265.65.452.832.467 1.452.01.443-.177.591-.591.458-.3-.093-.59-.231-.891-.34-.069-.024-.158.01-.236.02.02.094.01.207.064.266.093.103.216.182.34.256.447.256.748.605.733 1.157 0 .074.05.148.088.246.133-.094.227-.158.316-.222.083.512-.187.788-.503 1.03.163-.045.325-.07.498-.09a.8.8 0 0 1 .403-.275c.458-.123.916-.103 1.384-.098.133 0 .256.034.36.093a7 7 0 0 1 .329-.01.78.78 0 0 1 .433-.118c.556.01 1.088.158 1.635.222.492.059.861.093 1.26.413a.6.6 0 0 1 .113.128q.04.001.079.01c.025 0 .044.005.069.01a14 14 0 0 0-1.127-1.792z"/><path fill="#1F406A" d="M30.435 26.998c-.064-.143-.207-.241-.404-.285l-.123-.03.403 1.024.064-.133c.109-.221.128-.418.055-.57z"/><path fill="#1F406A" d="M29.568 27.732a.4.4 0 0 0 .054.182l.04.089.03.078.294-.206c.03.482-.295.723-.64.974.119-.044.232-.073.345-.098.28-.236.492-.522.414-1.004l-.015-.104-.335.232-.01-.02a.3.3 0 0 1-.044-.123c.01-.522-.231-.911-.768-1.216a1.3 1.3 0 0 1-.325-.241c-.025-.025-.03-.084-.034-.143v-.03h.014c.05-.01.099-.02.128-.01.133.045.261.099.39.148.162.064.334.133.501.187.227.074.394.064.512-.02.119-.088.173-.25.168-.502-.01-.462-.113-.689-.276-1.033-.059-.128-.123-.266-.192-.434-.05-.246-.231-.61-.443-.871q-.06-.222.015-.325c.054-.074.162-.113.335-.118.63-.025 1.275.152 2.048.546.29.153.57.345.837.537.137.098.275.197.418.285q.297.19.586.38c.192.123.384.24.57.369.09.054.173.123.252.182l.064.05-.852-.163.064.123c.242.438.591.743.936 1.034.265.226.517.448.723.723l-.522.03.07.098c.388.537.777 1.113 1.102 1.743h.015c.054.005.103.02.153.035a13.4 13.4 0 0 0-1.088-1.753l.517-.025-.065-.093c-.226-.34-.526-.596-.812-.847-.3-.256-.605-.522-.832-.876l.69.128.083-.187-.044-.03-.118-.089a12 12 0 0 0-.261-.192q-.29-.185-.571-.369a24 24 0 0 1-.586-.379c-.138-.088-.276-.187-.414-.285a8 8 0 0 0-.856-.547c-.788-.404-1.453-.576-2.107-.561q-.317.009-.434.172c-.078.108-.088.251-.034.448l.01.025c.197.246.384.6.428.837.074.177.138.32.197.448.157.34.256.546.26.98 0 .201-.034.334-.112.393q-.12.09-.394 0a6 6 0 0 1-.497-.187q-.193-.08-.394-.152c-.064-.025-.133-.01-.197 0l-.07.014h-.073l.015.08.01.083c.01.079.014.157.069.216.098.114.236.197.354.266.487.28.714.63.704 1.098z"/><path fill="#1F406A" d="M33.349 27.279c-.044-.138-.157-.246-.35-.34l-.118-.054.242 1.127.083-.142c.148-.242.192-.434.148-.591zM31.567 27.486c-.03-.128-.133-.237-.335-.35l-.123-.074.212 1.039.088-.128c.143-.212.192-.354.163-.487zM31.911 26.407l-.138-.049.463 1.049.054-.163c.08-.24.089-.418.02-.556-.064-.128-.187-.217-.394-.285zM33.55 25.856l-.029-.02-.192.074.428.965.055-.152c.147-.419.083-.64-.266-.867zM34.392 28.49c.242-.419.188-.655-.206-.891l-.133-.079.216.95c.04.005.084.015.123.02M31.759 24.443c-.128-.231-.384-.64-1.049-.674-.24-.01-.379-.064-.556-.108-.172-.045-.345.152-.335.211.005.06.374-.064.517.384.094.286.325 1.197 1.393.527 0 0-.024-.079.4.084 0 0-.242-.197-.37-.429zm-.556.433c-.37.133-.7-.315-.61-.467.088-.148.23-.025.23-.025s.035.27.242.241c.162-.024.157-.187.138-.231-.07-.138.142-.197.226-.069.138.217.005.468-.221.552z"/><path fill="url(#b)" d="M29.912 25.506c-.01-.039-.177-.384-.246-.531l-.054-.119a3 3 0 0 1-.088-.26c-.08-.271-.168-.576-.596-1.059l-.01-.015c-.02-.044-.143-.123-.192-.132l-.182-.04a18 18 0 0 0-1.359-.26q-.53-.075-.709.368a.9.9 0 0 0 .172.956l.064-.08c.04-.029.084-.068.123-.103.124-.108.247-.221.38-.207.211.03.576.153.67.37.117.27.265.266.506.25.192-.004.448.139.7.385.211.207.432.517.423.758 0 .04-.025.06-.05.079l-.03.024-.034.035-.044-.025-.093-.049a2 2 0 0 0-.212-.103 3 3 0 0 1-.236-.109c-.178-.088-.365-.177-.527-.167-.39.02-.7-.128-1.03-.286-.073-.034-.152-.073-.23-.108.192.409.526.625.96.812.039.015.123 0 .137-.014a.5.5 0 0 1 .39-.183c.132 0 .255.04.378.08.07.019.138.049.202.078.099.04.187.079.28.099.478.216.528.123.547.078.064-.118.025-.305 0-.458l-.015-.069z"/><path fill="#1F406A" d="M29.824 26.225c-.133 0-.305-.064-.478-.143a1.3 1.3 0 0 1-.295-.103 2 2 0 0 0-.192-.074c-.241-.074-.448-.143-.635.064-.064.064-.212.084-.29.05-.444-.197-.882-.453-1.088-1.034l-.05-.138.138.054c.138.054.261.113.39.172.31.148.605.286.964.271.202-.015.399.089.59.182.075.035.153.074.227.104.079.029.153.073.222.108l.049.024c-.005-.167-.158-.423-.384-.645-.217-.216-.453-.354-.605-.344-.247.01-.478.02-.636-.335-.059-.138-.344-.26-.57-.29-.07-.01-.183.093-.276.172q-.067.061-.133.113l-.04.064-.03.054-.044.07-.059-.055a1.03 1.03 0 0 1-.265-1.157c.137-.35.438-.512.846-.448.463.07.921.168 1.369.266l.182.04a.53.53 0 0 1 .28.201c.444.502.542.837.621 1.103.025.089.05.167.084.246 0 .01.024.054.054.113.212.444.251.537.256.562l.015.069c.034.172.078.389-.01.546-.044.089-.123.123-.222.123m-1.304-.522c.128 0 .256.04.379.079.069.02.138.05.202.079.098.04.187.079.28.098.478.212.527.123.547.079.064-.118.024-.305 0-.458l-.015-.069c-.01-.04-.177-.384-.246-.531l-.054-.119a3 3 0 0 1-.089-.26c-.079-.271-.167-.577-.596-1.059l-.01-.015c-.02-.044-.142-.123-.192-.133l-.182-.039a18 18 0 0 0-1.358-.261q-.532-.075-.71.37a.9.9 0 0 0 .173.954l.064-.078c.04-.03.084-.07.123-.104.123-.108.246-.221.38-.207.21.03.575.153.669.37.118.27.265.265.507.25.192-.004.448.139.699.385.211.206.433.517.423.758 0 .04-.024.059-.05.079l-.029.024-.034.035-.044-.025-.094-.05a2 2 0 0 0-.212-.102 3 3 0 0 1-.236-.109c-.177-.088-.364-.177-.527-.167-.389.02-.699-.128-1.029-.286-.073-.034-.152-.074-.231-.108.192.409.527.625.96.812.04.015.123 0 .138-.014a.5.5 0 0 1 .389-.183"/><path fill="#1F406A" d="M28.524 23.611c-.113-.123-.25.03-.206.143s.315.167.369.315.177-.094-.163-.458"/><path fill="#fff" d="m32.694 29.036 3.761 1.694a3.14 3.14 0 0 1-.364-1.403v-.36c-.463-.093-.91-.202-1.369-.28-.541-.089-1.083-.153-1.624-.232l-.084-.024H31.94c-.36.049-.72.083-1.073.147-.63.114-1.26.247-1.891.37l-.069.024c-.044.37-.05.724-.138 1.059a3.3 3.3 0 0 1-.266.699l3.762-1.694a.51.51 0 0 1 .433 0zM29.41 40.596q-.038-.038-.069-.074.073.074.138.148c.842.851 1.827 1.51 2.895 2.043.024.014.059.02.093.02.04 0 .084-.01.114-.025q1.97-1.011 3.328-2.501c-.118.133-.242.26-.37.389zM28.258 39.222q.12.161.237.315h7.98c.197-.256.374-.522.546-.792-.103.162-.206.32-.32.477h-8.448zM36.18 39.907c-.05.054-.094.113-.148.167.05-.054.099-.113.148-.167M37.445 31.779l.04.024zM38.617 32.222a9 9 0 0 1-.394-.099.52.52 0 0 1-.473.3H27.2a.52.52 0 0 1-.468-.3q-.126.038-.26.074h-.035c-.3.093-.266.015-.266.34 0 2.097.478 4.002 1.448 5.705a.5.5 0 0 1 .24-.064h.134v-4.745h-.133a.26.26 0 0 1-.261-.266.26.26 0 0 1 .26-.261h9.227c.147 0 .265.118.265.26a.27.27 0 0 1-.265.267h-.133v4.745h.133c.088 0 .167.025.24.064-.093.173-.191.335-.295.503q1.058-1.675 1.517-3.801c.177-.822.256-1.66.226-2.506 0-.118-.03-.177-.157-.207z"/><path fill="#fff" d="M30.632 33.423h-1.58v4.746h1.58zM33.265 33.423h-1.58v4.746h1.58zM35.904 33.423h-1.58v4.746h1.58z"/><path fill="#1F406A" d="M38.676 31.956c-.562-.119-.955-.286-1.275-.537-.67-.522-1.01-1.211-1.04-2.102v-.566l-.216-.045-.423-.088c-.31-.07-.635-.138-.96-.192-.37-.064-.748-.113-1.113-.163-.167-.024-.34-.044-.507-.069l-.044-.02-.044-.014h-1.157c-.109.02-.222.03-.33.044-.246.03-.502.064-.753.108-.468.084-.94.178-1.398.271l-.498.099c-.054.01-.103.034-.123.04l-.157.053v.163c-.02.118-.03.236-.045.354-.02.236-.04.463-.093.67-.266 1.048-.95 1.688-2.088 1.96l-.044.009a1 1 0 0 1-.118.03c-.3.068-.35.211-.35.477v.084c0 3.264 1.143 6.065 3.383 8.33.807.817 1.777 1.501 2.968 2.097.079.04.163.05.217.05.083 0 .167-.02.236-.055 3.264-1.669 5.322-4.347 6.105-7.96a10.1 10.1 0 0 0 .231-2.576c-.01-.25-.133-.408-.374-.457zm-.123 2.973q-.466 2.126-1.517 3.8s-.005.01-.01.016c-.172.27-.354.541-.546.792q-.146.184-.3.37-.075.087-.148.167-.058.066-.123.133c-.906.99-2.009 1.826-3.328 2.5a.3.3 0 0 1-.113.025.2.2 0 0 1-.094-.02c-1.068-.536-2.053-1.196-2.895-2.043q-.072-.073-.137-.147-.092-.096-.182-.192a8 8 0 0 1-.202-.227c-.025-.03-.05-.054-.074-.083-.133-.158-.266-.316-.39-.478-.078-.103-.162-.212-.235-.315 0 0-.005-.01-.01-.015a8 8 0 0 1-.32-.472s-.005-.01-.01-.015a10 10 0 0 1-.296-.492c-.97-1.704-1.447-3.61-1.447-5.706 0-.325-.034-.246.266-.335h.034c.089-.025.173-.05.261-.079.793-.241 1.394-.69 1.758-1.383h.005c.108-.212.202-.443.266-.7.083-.334.088-.694.138-1.058l.068-.024c.63-.123 1.26-.256 1.89-.37.355-.064.715-.098 1.074-.147h1.073l.084.024c.541.074 1.088.138 1.625.232.457.073.905.182 1.368.28v.36c.02.517.138.99.364 1.403h.005q.206.382.537.699h.005c.074.069.148.138.231.202.07.054.138.103.212.147l.04.025c.23.138.482.241.738.315q.192.06.394.099c.128.03.157.083.157.206.03.847-.049 1.684-.226 2.506z"/><path fill="#3D6638" d="M28.495 39.542c.123.163.256.32.389.478.024.03.049.054.073.083a8 8 0 0 0 .384.419 1 1 0 0 1 .07.074h6.129a9 9 0 0 0 .369-.39c.04-.044.084-.088.123-.132.05-.054.098-.113.148-.168.103-.123.201-.24.3-.369H28.5z"/><path fill="#3D6638" d="M36.032 40.074q-.059.066-.123.133.061-.067.123-.133M36.475 39.542q-.146.184-.3.37.154-.178.3-.37M29.341 40.522c-.059-.064-.123-.128-.182-.192q.088.096.182.192M37.09 38.169h-.133v-4.746h.133a.265.265 0 0 0 .266-.266.26.26 0 0 0-.266-.261h-9.226a.26.26 0 0 0-.26.26c0 .144.118.267.26.267h.133v4.746h-.133a.6.6 0 0 0-.24.064 10 10 0 0 0 .304.507c.104.157.207.315.32.472 0 0 .005.01.01.015h8.448c.113-.157.217-.315.32-.477 0 0 .005-.01.01-.015q.155-.244.295-.502a.5.5 0 0 0-.24-.064m-6.459 0h-1.58v-4.746h1.58zm2.639 0h-1.58v-4.746h1.58zm2.634 0h-1.58v-4.746h1.58z"/><path fill="#3D6638" d="M27.929 38.74s-.005-.01-.01-.015c0 0 .005.01.01.015M37.031 38.735s-.005.01-.01.015c0 0 .005-.01.01-.015M28.258 39.222s-.005-.01-.01-.015c0 0 .005.01.01.015M27.205 32.419h10.55a.53.53 0 0 0 .473-.3 3.2 3.2 0 0 1-.739-.32 2.055 2.055 0 0 1-.251-.172c-.084-.065-.157-.134-.231-.203h-.005a2.8 2.8 0 0 1-.542-.7l-3.76-1.693a.51.51 0 0 0-.434 0l-3.761 1.694c-.365.694-.97 1.142-1.763 1.388.084.178.261.3.468.3zM37.445 31.779"/><path fill="#3D6638" d="M38.223 32.118a3.4 3.4 0 0 1-.739-.315c.232.138.483.241.739.32zM28.5 30.73h-.005c-.364.694-.97 1.142-1.758 1.383.793-.246 1.399-.694 1.763-1.388zM36.997 31.429a2.9 2.9 0 0 1-.536-.694h-.005c.137.25.32.482.541.694"/></g><defs><linearGradient id="b" x1="26.402" x2="29.967" y1="24.581" y2="24.581" gradientUnits="userSpaceOnUse"><stop stop-color="#FBEE36"/><stop offset="1" stop-color="#EA2D36"/></linearGradient><clipPath id="a"><path fill="#fff" d="M0 0h64v64H0z"/></clipPath></defs></svg>